<?xml version="1.0" encoding="UTF-8"?>
<svg version="1.1" xmlns="http://www.w3.org/2000/svg" width="649" height="275">
<path d="M0 0 C0.64744171 -0.0049649 1.29488342 -0.00992981 1.96194458 -0.01504517 C4.11974133 -0.02972828 6.27746405 -0.03648659 8.43530273 -0.04199219 C9.94254049 -0.04774822 11.44977825 -0.05350589 12.95701599 -0.05926514 C16.13231751 -0.06979901 19.30759361 -0.07562287 22.48291016 -0.07910156 C26.50697839 -0.08452538 30.53069768 -0.10840889 34.55465794 -0.13707352 C37.67869449 -0.15593894 40.80265201 -0.16091846 43.92674065 -0.16243744 C45.40676676 -0.16542215 46.88679295 -0.17330473 48.36676216 -0.18662262 C69.30713837 -0.36126452 88.23996284 3.55869185 104.06030273 18.25488281 C116.57634901 31.36466942 120.01074519 48.58349533 119.80639648 66.16113281 C118.73335044 93.1643366 110.81789578 119.95148802 90.80639648 139.16113281 C72.64665218 154.80604372 52.42749798 160.62178932 28.79499817 160.04595947 C25.39777764 159.96386716 22.00053754 159.92906624 18.60253906 159.89477539 C16.85393072 159.8638454 15.10558971 159.80954567 13.35839844 159.73266602 C3.68612251 158.94564233 3.68612251 158.94564233 -4.80047607 162.59869385 C-7.77055207 166.428393 -9.57487286 170.62096999 -11.19360352 175.16113281 C-14.38850694 175.16113281 -15.78977896 174.57002775 -18.63110352 173.22363281 C-26.46274193 169.52646341 -33.45184131 169.0247476 -41.75610352 171.72363281 C-50.5515762 175.25412325 -55.36763956 180.37835049 -59.28344727 188.92675781 C-62.33283307 196.41280364 -62.33532124 204.18983943 -59.19360352 211.66113281 C-58.82235352 212.43457031 -58.45110352 213.20800781 -58.06860352 214.00488281 C-57.19360352 216.16113281 -57.19360352 216.16113281 -57.19360352 220.16113281 C-70.45216949 227.66670033 -83.88010948 234.2793899 -99.19360352 236.16113281 C-99.47333008 235.31550781 -99.75305664 234.46988281 -100.04125977 233.59863281 C-103.48604062 223.85134293 -106.97810293 217.12288498 -116.31860352 212.22363281 C-124.44836181 208.39251668 -132.15932734 208.33732897 -140.63891602 211.13378906 C-149.31684873 214.62353876 -154.33805808 219.63972392 -158.19360352 228.16113281 C-159.09074206 230.84821444 -159.67605203 233.36635479 -160.19360352 236.16113281 C-165.86647329 235.61030729 -170.84202476 234.53602216 -176.19360352 232.59863281 C-177.27532837 232.21360596 -177.27532837 232.21360596 -178.37890625 231.82080078 C-186.29825405 228.90554516 -193.7480466 225.10938237 -201.19360352 221.16113281 C-201.19360352 217.30617865 -201.00915351 216.37413192 -199.25610352 213.22363281 C-195.20992652 205.44582262 -195.65712016 197.63617988 -197.19360352 189.16113281 C-196.32219727 189.25136719 -195.45079102 189.34160156 -194.55297852 189.43457031 C-187.67206834 189.67950684 -187.67206834 189.67950684 -181.56225586 186.98144531 C-178.21023871 183.71055152 -175.47477845 179.93445006 -172.70874023 176.16796875 C-170.20561442 172.8525169 -167.44277072 169.77269765 -164.69360352 166.66113281 C-163.59975266 165.40323684 -162.50730029 164.14412336 -161.41625977 162.88378906 C-160.61212646 161.95590576 -160.61212646 161.95590576 -159.79174805 161.00927734 C-155.74649203 156.33121623 -151.72869764 151.6295533 -147.70825195 146.93017578 C-146.12418242 145.08005202 -144.5380565 143.23170836 -142.95141602 141.38378906 C-142.41653564 140.76060791 -141.88165527 140.13742676 -141.33056641 139.49536133 C-140.3170296 138.31460431 -139.3032169 137.13408403 -138.2890625 135.95385742 C-135.22493461 132.38250475 -132.19860293 128.78240252 -129.19360352 125.16113281 C-119.96260315 128.99873971 -110.54939436 142.28754408 -105.69189453 150.78955078 C-102.41067055 153.90435677 -100.42604889 153.7294998 -96.03192139 153.72761536 C-94.61921967 153.68890572 -94.61921967 153.68890572 -93.17797852 153.64941406 C-92.20701233 153.64233932 -91.23604614 153.63526459 -90.23565674 153.62797546 C-87.13751857 153.60000915 -84.04119444 153.53726549 -80.94360352 153.47363281 C-78.84206713 153.44855288 -76.7405024 153.42573918 -74.63891602 153.40527344 C-69.48978064 153.35017488 -64.34199952 153.26388574 -59.19360352 153.16113281 C-59.93400879 152.3601416 -60.67441406 151.55915039 -61.43725586 150.73388672 C-62.42642942 149.66022858 -63.41552005 148.58649402 -64.40454102 147.51269531 C-65.13338501 146.72487671 -65.13338501 146.72487671 -65.87695312 145.92114258 C-69.76919464 141.69016206 -73.40845462 137.2875277 -77.01391602 132.80957031 C-79.1711775 130.18838162 -81.40671352 127.66959 -83.69360352 125.16113281 C-87.62268826 120.84938938 -91.31874077 116.38836491 -94.97094727 111.84082031 C-97.77927764 108.45503009 -100.78637891 105.28156416 -103.85766602 102.13378906 C-105.19360352 100.16113281 -105.19360352 100.16113281 -105.23266602 98.30175781 C-103.6568386 95.05531636 -101.32543812 92.52035192 -98.94360352 89.84863281 C-98.40928711 89.23761719 -97.8749707 88.62660156 -97.32446289 87.99707031 C-96.1917773 86.70219575 -95.05628814 85.40976901 -93.91821289 84.11962891 C-91.15694582 80.98388649 -88.4272746 77.82092164 -85.69360352 74.66113281 C-84.60119927 73.40198034 -83.5087514 72.14286572 -82.41625977 70.88378906 C-77.81552722 65.57503876 -73.24866425 60.23736476 -68.68188477 54.89941406 C-67.17688302 53.14160363 -65.66992649 51.38548836 -64.16235352 49.62988281 C-63.66195557 49.0454541 -63.16155762 48.46102539 -62.64599609 47.85888672 C-61.64157063 46.69177833 -60.63103014 45.52990298 -59.61425781 44.37353516 C-57.07535721 41.4671024 -54.72775208 38.54952111 -52.55688477 35.35644531 C-50.01339228 31.74092985 -47.73722741 28.86082067 -44.19360352 26.16113281 C-39.86939314 25.6276545 -36.27210968 25.98917546 -32.00610352 26.66503906 C-26.79466619 27.34316667 -22.89730658 26.36574491 -18.19360352 24.16113281 C-16.99606445 23.66355469 -15.79852539 23.16597656 -14.56469727 22.65332031 C-12.26828692 21.31583021 -11.35440192 20.52642066 -10.27441406 18.07299805 C-9.64420666 15.54529343 -9.19743172 13.05081256 -8.81860352 10.47363281 C-8.52143706 8.74016184 -8.22207742 7.00706492 -7.92016602 5.27441406 C-7.80237793 4.50911377 -7.68458984 3.74381348 -7.56323242 2.95532227 C-6.72950725 -1.09160396 -3.57240934 0.02075425 0 0 Z M27.80639648 33.16113281 C25.32554349 44.84311016 22.84794205 56.52577187 20.37451935 68.20932484 C19.22597727 73.6341143 18.07630551 79.05865926 16.92407227 84.48266602 C15.81268608 89.71459263 14.70424091 94.94713434 13.59785461 100.18012047 C13.17468012 102.17907714 12.7504363 104.17780774 12.32511902 106.17630959 C11.73078126 108.9698994 11.14020925 111.76426011 10.55053711 114.55883789 C10.37287308 115.38961853 10.19520905 116.22039917 10.01216125 117.07635498 C9.36500394 120.15853115 8.80639648 123.00220493 8.80639648 126.16113281 C12.71655276 126.26155168 16.62618899 126.333313 20.53735352 126.38085938 C22.50620989 126.41038032 24.47470946 126.46125958 26.44311523 126.51269531 C40.14160128 126.65176624 50.50781145 123.32085379 60.80639648 114.16113281 C73.2680968 101.08694817 77.47986984 83.94075025 77.27661133 66.33056641 C76.91775143 56.45328357 74.79448359 47.99888753 67.70874023 40.77832031 C58.82900425 33.22963305 47.54650926 33.02696719 36.39233398 33.11425781 C35.5637085 33.1176416 34.73508301 33.12102539 33.88134766 33.12451172 C31.85634609 33.13327164 29.83136571 33.14672022 27.80639648 33.16113281 Z " fill="#203F99" transform="translate(267.193603515625,38.8388671875)"/>
<path d="M0 0 C16.34413869 0.52723028 33.51020493 8.00680329 47 17 C46.40075082 20.83519478 45.2258509 24.24612885 43.81640625 27.83984375 C42.92722911 30.10491897 42.92722911 30.10491897 42.15625 32.92578125 C40.87209763 36.34006475 39.29253533 38.47546102 36.9375 41.25 C36.13183594 42.20390625 35.32617188 43.1578125 34.49609375 44.140625 C31.45634296 47.62278083 28.36350432 51.05254387 25.25 54.46875 C22.92137947 57.0884481 20.70437053 59.7751531 18.5 62.5 C14.88967558 66.96276213 11.11572071 71.22719533 7.25 75.46875 C4.92137947 78.0884481 2.70437053 80.7751531 0.5 83.5 C-3.10173417 87.95214362 -6.85851312 92.21190046 -10.73046875 96.4296875 C-13.99139085 100.12278 -16.97570011 104.02450907 -19.95703125 107.9453125 C-20.63121094 108.62335938 -21.30539063 109.30140625 -22 110 C-23.32 110 -24.64 110 -26 110 C-28.0078125 107.98046875 -28.0078125 107.98046875 -30.125 105.1875 C-33.28851158 101.13716797 -36.50325708 97.27452157 -40 93.5 C-44.13977416 88.99968563 -48.05671695 84.36493451 -51.89453125 79.60546875 C-52.58933594 78.74566406 -53.28414063 77.88585937 -54 77 C-54.65983887 75.96834717 -55.31967773 74.93669434 -55.99951172 73.8737793 C-57.67506079 71.8819749 -58.59713306 71.09873873 -61.14671326 70.47386169 C-63.82148994 70.30531212 -66.43460837 70.32549871 -69.11328125 70.4140625 C-70.56760811 70.42679703 -70.56760811 70.42679703 -72.05131531 70.43978882 C-75.13952065 70.47330131 -78.22508778 70.54857772 -81.3125 70.625 C-83.40946742 70.65510233 -85.50647589 70.68247767 -87.60351562 70.70703125 C-92.73668925 70.77308593 -97.8678978 70.87659413 -103 71 C-101.78219849 72.30868042 -101.78219849 72.30868042 -100.53979492 73.64379883 C-99.45743719 74.81063326 -98.37516643 75.97754837 -97.29296875 77.14453125 C-96.75990112 77.71691528 -96.2268335 78.28929932 -95.6776123 78.87902832 C-91.63753231 83.24070672 -87.8677105 87.75119287 -84.14453125 92.38671875 C-82.00125044 94.99847623 -79.7761967 97.50365302 -77.5 100 C-73.58231158 104.29857479 -69.91032858 108.75609805 -66.25390625 113.27734375 C-64.04853296 115.94137353 -61.7682369 118.50788442 -59.4375 121.0625 C-56.3661988 124.45880662 -53.32425832 127.87179403 -50.375 131.375 C-49.70210938 132.16648438 -49.02921875 132.95796875 -48.3359375 133.7734375 C-47 136 -47 136 -47.2590332 137.94042969 C-48.0599506 140.16663699 -48.94965211 141.42214402 -50.51953125 143.1796875 C-51.0410376 143.77144775 -51.56254395 144.36320801 -52.09985352 144.97290039 C-52.66502686 145.60059326 -53.2302002 146.22828613 -53.8125 146.875 C-55.00564125 148.22487789 -56.19833993 149.57514708 -57.390625 150.92578125 C-57.99583984 151.60721191 -58.60105469 152.28864258 -59.22460938 152.99072266 C-61.87110173 155.98585908 -64.46803076 159.02231535 -67.0625 162.0625 C-68.05326439 163.22015568 -69.0441499 164.3777077 -70.03515625 165.53515625 C-70.52387207 166.10637207 -71.01258789 166.67758789 -71.51611328 167.26611328 C-74.00895524 170.17894046 -76.50462766 173.08934061 -79 176 C-80.0000134 177.16665518 -81.00001341 178.33332184 -82 179.5 C-91 190 -100 200.5 -109 211 C-109.90600952 210.78887573 -109.90600952 210.78887573 -110.83032227 210.57348633 C-112.02999634 210.29927856 -112.02999634 210.29927856 -113.25390625 210.01953125 C-114.43835327 209.74653198 -114.43835327 209.74653198 -115.64672852 209.46801758 C-125.67218242 207.4741598 -134.56600574 210.68291666 -143 216 C-151.91014866 204.3643941 -162 185.96604352 -162 171 C-161.2265625 170.72027344 -160.453125 170.44054687 -159.65625 170.15234375 C-149.09508046 166.08733914 -142.73459159 161.71683275 -137.91015625 151.33203125 C-134.64710176 142.97132939 -135.56539728 135.73999049 -138.87890625 127.5078125 C-142.05653837 120.39965982 -146.17602995 116.57546499 -153 113 C-156.28919827 111.7785592 -159.58793133 110.8120581 -163 110 C-162.50757565 94.48863311 -155.11436147 80.46465071 -148 67 C-147.505 66.01 -147.505 66.01 -147 65 C-144.99290601 66.003547 -142.98674141 67.00683565 -140.9921875 68.03515625 C-133.26550967 71.78444826 -125.63010693 73.07865025 -117.2265625 70.8515625 C-108.74163006 67.60644799 -102.55264098 61.57714935 -98.1875 53.75 C-95.02618668 43.76690532 -95.9207479 35.65511292 -100 26 C-101.5313415 23.69987572 -101.5313415 23.69987572 -103 22 C-101.63044121 18.68597354 -100.40135132 17.30896098 -97.24609375 15.6328125 C-96.48176025 15.22466309 -95.71742676 14.81651367 -94.92993164 14.39599609 C-94.1074292 13.97656738 -93.28492676 13.55713867 -92.4375 13.125 C-91.59501709 12.68881348 -90.75253418 12.25262695 -89.88452148 11.80322266 C-70.47588277 2 -70.47588277 2 -61 2 C-60.70867187 2.78503906 -60.41734375 3.57007813 -60.1171875 4.37890625 C-55.95839614 15.03744386 -51.6440072 21.31663683 -41 26 C-32.90724274 28.62512994 -23.76523001 27.72865455 -16.1484375 24.19140625 C-8.08205332 19.71822957 -3.82279049 13.20631018 -1.1875 4.5 C-0.77950379 3.00326251 -0.37915798 1.50430158 0 0 Z " fill="#203F99" transform="translate(163,0)"/>
<path d="M0 0 C10.31447928 9.63523308 15.88964415 22.58420907 16.375 36.53515625 C16.40310629 38.10665759 16.42388244 39.67830633 16.4375 41.25 C16.4468457 41.98532959 16.45619141 42.72065918 16.46582031 43.47827148 C16.43135517 49.47586852 15.41058129 54.13459354 14.1875 60.25 C-12.8725 60.25 -39.9325 60.25 -67.8125 60.25 C-66.68336801 72.11497536 -66.68336801 72.11497536 -59.9375 81.125 C-54.136518 85.06966776 -48.70174027 86.10284807 -41.8125 85.25 C-38.12404824 84.40966466 -35.03036612 83.24826109 -31.8125 81.25 C-30.87820772 79.73821541 -29.99620933 78.1932506 -29.16015625 76.625 C-27.34316006 74.18685265 -25.98237513 72.55527863 -22.97583008 71.77072144 C-17.45508741 71.10360759 -11.91437334 71.43237969 -6.375 71.6875 C-4.67263165 71.73268702 -2.97014837 71.77374427 -1.26757812 71.81054688 C2.88696844 71.9093128 7.035966 72.06433779 11.1875 72.25 C7.62507932 86.77591816 0.65413561 97.35865587 -12.125 105.6875 C-27.98060408 114.8443459 -48.57670084 117.10581799 -66.4375 113.1875 C-79.97179878 108.96543012 -90.5181392 101.38221258 -97.49609375 89.0234375 C-101.20035158 81.21921477 -103.45278022 72.8832747 -103.8125 64.25 C-103.85246094 63.4971875 -103.89242188 62.744375 -103.93359375 61.96875 C-104.48952565 41.82439415 -98.11808414 21.22868855 -84.16015625 6.41015625 C-61.74749599 -14.21247457 -25.0036023 -19.57044703 0 0 Z M-58.8125 26.25 C-61.93390025 30.25179519 -62.79512752 32.1631376 -63.8125 37.25 C-49.2925 37.25 -34.7725 37.25 -19.8125 37.25 C-19.8125 29.37614698 -19.95567298 26.80946443 -24.8125 21.25 C-35.77639046 11.5939848 -49.94448676 16.84027554 -58.8125 26.25 Z " fill="#203F98" transform="translate(498.8125,86.75)"/>
<path d="M0 0 C12.87 0 25.74 0 39 0 C39.20496094 4.73472656 39.40992188 9.46945313 39.62109375 14.34765625 C39.75306529 17.37826375 39.88513983 20.40886608 40.01757812 23.43945312 C40.22698289 28.23148433 40.43604172 33.02352858 40.64282227 37.81567383 C40.80987959 41.68667182 40.97867011 45.55759096 41.14857674 49.42846489 C41.21255101 50.89252571 41.27593947 52.35661228 41.33868217 53.82072639 C41.7564872 63.55841598 42.30951932 73.27808239 43 83 C43.43919266 82.03823853 43.87838531 81.07647705 44.33088684 80.08557129 C52.9723896 61.16315806 61.63292055 42.24964305 70.32592773 23.35083008 C70.83962921 22.23373405 70.83962921 22.23373405 71.3637085 21.09407043 C71.99235077 19.72709557 72.62119198 18.36021217 73.25030518 16.99345398 C75.8515915 11.33697564 78.42358863 5.66810501 81 0 C94.53 0 108.06 0 122 0 C121.08473472 4.5763264 120.00089061 7.24482604 117.82421875 11.27734375 C117.50317169 11.87626938 117.18212463 12.47519501 116.85134888 13.0922699 C115.80299476 15.0441267 114.74540564 16.99080615 113.6875 18.9375 C112.95415543 20.29806196 112.22133135 21.65890458 111.48901367 23.02001953 C109.33502537 27.01826069 107.16894806 31.00985934 105 35 C104.4318457 36.04655762 103.86369141 37.09311523 103.27832031 38.17138672 C100.83376148 42.6705134 98.38109472 47.16512179 95.921875 51.65625 C92.78503019 57.38661603 89.67229467 63.12991964 86.5625 68.875 C86.0250415 69.86741699 85.48758301 70.85983398 84.93383789 71.88232422 C82.15422578 77.01602551 79.37801157 82.15153987 76.60546875 87.2890625 C76.04335693 88.32949707 75.48124512 89.36993164 74.90209961 90.44189453 C73.8509797 92.38756144 72.80089604 94.33378878 71.75219727 96.28076172 C67.26644613 104.58039586 62.62777903 112.77283729 58 121 C43.15 121 28.3 121 13 121 C10.62466718 100.3707024 10.62466718 100.3707024 9.59179688 91.39257812 C8.89442603 85.33077577 8.19695481 79.26898512 7.4987793 73.20727539 C6.28727661 62.68782329 5.07803443 52.16811992 3.87533379 41.64765739 C3.33260777 36.90082333 2.78726952 32.15430759 2.23834133 27.40818691 C1.88099361 24.31024546 1.52867294 21.21173297 1.17578125 18.11328125 C1.05261032 17.0577153 0.92943939 16.00214935 0.80253601 14.91459656 C0.69407852 13.95318253 0.58562103 12.99176849 0.47387695 12.0012207 C0.38121048 11.19433304 0.28854401 10.38744537 0.19306946 9.55610657 C-0.04689539 6.37913735 0 3.18601891 0 0 Z " fill="#203F98" transform="translate(527,78)"/>
<path d="M0 0 C0.66029205 -0.00175232 1.32058411 -0.00350464 2.00088501 -0.00531006 C4.19714951 -0.00973214 6.3933342 -0.00678702 8.58959961 -0.00341797 C10.11600256 -0.00409147 11.6424054 -0.00506188 13.16880798 -0.00631714 C16.3776857 -0.00779505 19.58653566 -0.00563867 22.79541016 -0.00097656 C26.89188157 0.00468713 30.98828698 0.0014638 35.0847559 -0.00454903 C38.24277737 -0.008181 41.4007835 -0.00700341 44.55880547 -0.00442123 C46.06775355 -0.00375748 47.57670307 -0.00456095 49.08564949 -0.00690079 C63.61590493 -0.02446761 63.61590493 -0.02446761 70.67944336 1.12939453 C70.67944336 1.45939453 70.67944336 1.78939453 70.67944336 2.12939453 C45.92944336 2.12939453 21.17944336 2.12939453 -4.32055664 2.12939453 C-6.40889024 11.11037314 -6.40889024 11.11037314 -8.32055664 20.12939453 C-8.98055664 20.12939453 -9.64055664 20.12939453 -10.32055664 20.12939453 C-8.3730882 0.00555396 -8.3730882 0.00555396 0 0 Z " fill="#1F367C" transform="translate(267.320556640625,38.87060546875)"/>
<path d="M0 0 C0.495 0.99 0.495 0.99 1 2 C0.18595703 2.99580078 0.18595703 2.99580078 -0.64453125 4.01171875 C-1.35996094 4.89472656 -2.07539062 5.77773437 -2.8125 6.6875 C-3.52019531 7.55761719 -4.22789063 8.42773438 -4.95703125 9.32421875 C-7.02819727 11.92289853 -7.02819727 11.92289853 -8.55078125 14.65625 C-9.98744728 16.97969911 -11.21237825 18.1929801 -13.375 19.8125 C-17.26452278 22.97531789 -19.59993518 26.64227863 -22 31 C-22.62648438 30.9278125 -23.25296875 30.855625 -23.8984375 30.78125 C-24.71570313 30.6884375 -25.53296875 30.595625 -26.375 30.5 C-27.59316406 30.36078125 -27.59316406 30.36078125 -28.8359375 30.21875 C-30.96912825 29.96647649 -30.96912825 29.96647649 -33 30 C-32.96519531 31.14597656 -32.93039063 32.29195312 -32.89453125 33.47265625 C-32.86637297 35.00258939 -32.83907501 36.53253854 -32.8125 38.0625 C-32.77479492 39.19075195 -32.77479492 39.19075195 -32.73632812 40.34179688 C-32.66708977 45.67315049 -33.50960976 49.26644955 -36 54 C-36.66 54.66 -37.32 55.32 -38 56 C-37.34 57.32 -36.68 58.64 -36 60 C-37.65 59.34 -39.3 58.68 -41 58 C-40.731875 57.484375 -40.46375 56.96875 -40.1875 56.4375 C-35.21536748 46.23154378 -33.98178137 38.1322377 -36 27 C-35.12859375 27.09023437 -34.2571875 27.18046875 -33.359375 27.2734375 C-26.44007907 27.52082252 -26.44007907 27.52082252 -20.3203125 24.77197266 C-16.95435848 21.4845157 -14.18469475 17.72547582 -11.42578125 13.92626953 C-9.16957359 10.87807117 -6.70469941 8.01363317 -4.25 5.125 C-2.83230273 3.41752184 -1.41521819 1.70953348 0 0 Z " fill="#1D3380" transform="translate(106,201)"/>
<path d="M0 0 C-3.11188304 2.07458869 -5.26289868 2.71908759 -8.875 3.5625 C-10.41800781 3.93568359 -10.41800781 3.93568359 -11.9921875 4.31640625 C-24.17839059 6.65748671 -36.94561641 6.28536779 -49.3125 6.5625 C-51.13216895 6.60580614 -52.95183052 6.64942374 -54.77148438 6.69335938 C-59.18091281 6.79915818 -63.59041925 6.9007613 -68 7 C-68.99 8.98 -69.98 10.96 -71 13 C-72.48576635 8.98843085 -71.80747878 8.51869696 -70 4 C-54.16 3.67 -38.32 3.34 -22 3 C-21.67 2.34 -21.34 1.68 -21 1 C-20.09636719 1.01160156 -19.19273437 1.02320313 -18.26171875 1.03515625 C-16.49248047 1.04869141 -16.49248047 1.04869141 -14.6875 1.0625 C-13.51574219 1.07410156 -12.34398437 1.08570313 -11.13671875 1.09765625 C-7.25558807 0.97682404 -3.94508405 -0.10662389 0 0 Z " fill="#1E3683" transform="translate(332,193)"/>
<path d="M0 0 C0.33 0.99 0.66 1.98 1 3 C3.34014889 4.17007445 4.6137339 4.09050413 7.21508789 4.03076172 C8.52268822 4.00742264 8.52268822 4.00742264 9.85670471 3.98361206 C10.80246872 3.96581696 11.74823273 3.94802185 12.72265625 3.9296875 C14.72589699 3.91877912 16.72915723 3.91107071 18.73242188 3.90625 C21.89174214 3.89841475 25.04640043 3.87539527 28.20483398 3.79785156 C46.77821755 3.37151495 46.77821755 3.37151495 51.37060547 7.48925781 C53.58429915 10.23010587 55.30469351 12.9227794 57 16 C57.66 16.33 58.32 16.66 59 17 C59 17.66 59 18.32 59 19 C60.485 19.495 60.485 19.495 62 20 C63.75 22.4375 63.75 22.4375 65 25 C64.67 25.66 64.34 26.32 64 27 C62.66281764 25.54519512 61.33053272 24.08588897 60 22.625 C58.8144782 21.32833553 57.62627439 20.03386077 56.41601562 18.76025391 C55 17 55 17 53.69335938 14.43896484 C51.73780894 11.07525096 50.22903584 9.21943931 47 7 C39.7011273 5.28832279 31.92488723 6.06484945 24.5 6.375 C22.41677308 6.42520214 20.33343038 6.47082227 18.25 6.51171875 C13.16379493 6.62150894 8.08317249 6.79380541 3 7 C5.31 9.64 7.62 12.28 10 15 C8.68 15.33 7.36 15.66 6 16 C5.67 15.01 5.34 14.02 5 13 C4.01 12.67 3.02 12.34 2 12 C1.855625 11.360625 1.71125 10.72125 1.5625 10.0625 C1.1875 7.875 1.1875 7.875 -0.6875 6.6875 C-3.72203131 5.78534204 -5.94880471 6.30654652 -9 7 C-6.03716687 4.61327331 -3.05729491 2.2646629 0 0 Z " fill="#1B337F" transform="translate(57,64)"/>
<path d="M0 0 C1.3984375 1.375 1.3984375 1.375 3.1484375 3.5 C0.12789285 2.90773634 -1.75470439 2.02258515 -4.1640625 0.125 C-13.52040306 -6.78276633 -23.71747716 -7.89026656 -34.9765625 -7.875 C-36.08153076 -7.87483887 -37.18649902 -7.87467773 -38.32495117 -7.87451172 C-53.34302861 -7.66514678 -66.33593322 -3.3199111 -77.5078125 7.03515625 C-77.930625 7.47730469 -78.3534375 7.91945313 -78.7890625 8.375 C-80.8515625 10.5 -80.8515625 10.5 -83.8515625 11.5 C-80.03717185 2.27163553 -68.52040945 -2.83064679 -59.8515625 -6.5 C-41.12133174 -13.42910271 -16.08410972 -13.03016484 0 0 Z " fill="#1A3075" transform="translate(496.8515625,85.5)"/>
<path d="M0 0 C-1.375 1.5 -1.375 1.5 -3 3 C-3.66 3 -4.32 3 -5 3 C-5.33 3.66 -5.66 4.32 -6 5 C-7.796875 5.52734375 -7.796875 5.52734375 -10 6 C-11.42366111 6.50139889 -12.84062729 7.02224046 -14.25 7.5625 C-14.95640625 7.83191406 -15.6628125 8.10132813 -16.390625 8.37890625 C-16.92171875 8.58386719 -17.4528125 8.78882813 -18 9 C-17.01 9.66 -16.02 10.32 -15 11 C-14 14 -14 14 -14 17 C-14.66 17 -15.32 17 -16 17 C-15.9278125 17.556875 -15.855625 18.11375 -15.78125 18.6875 C-15.15508783 23.8359445 -14.90572055 28.81463038 -15 34 C-17.41799449 29.61537 -18.54469443 24.88674681 -19.90234375 20.09375 C-20.93158648 17.19282386 -22.00909798 15.31421089 -24 13 C-22.57985518 9.44940196 -21.11017819 8.15746708 -17.75390625 6.38671875 C-16.91666016 5.94392578 -16.07941406 5.50113281 -15.21679688 5.04492188 C-14.34087891 4.59697266 -13.46496094 4.14902344 -12.5625 3.6875 C-11.69044922 3.22021484 -10.81839844 2.75292969 -9.91992188 2.27148438 C-3.3858817 -1.12862723 -3.3858817 -1.12862723 0 0 Z " fill="#1D3F93" transform="translate(84,9)"/>
<path d="M0 0 C8.91765652 0.23080993 16.70624517 3.00318992 25 6 C25 6.33 25 6.66 25 7 C21.77935622 7.08946233 19.10247623 6.82732699 16 6 C15.01 6 14.02 6 13 6 C12.34 5.34 11.68 4.68 11 4 C8.93125966 3.3574765 8.93125966 3.3574765 7 3 C6.67 4.65 6.34 6.3 6 8 C5.01 8.33 4.02 8.66 3 9 C3 10.32 3 11.64 3 13 C2.34 13 1.68 13 1 13 C0.67 12.67 0.34 12.34 0 12 C-0.4125 12.804375 -0.825 13.60875 -1.25 14.4375 C-3 17 -3 17 -5.1875 17.8125 C-5.785625 17.874375 -6.38375 17.93625 -7 18 C-6.71253906 17.443125 -6.42507812 16.88625 -6.12890625 16.3125 C-4.95553808 13.9089223 -3.93273737 11.48241717 -2.9375 9 C-2.42509766 7.7315625 -2.42509766 7.7315625 -1.90234375 6.4375 C-1.11094591 4.29969803 -0.49878591 2.22139706 0 0 Z " fill="#1E3A8D" transform="translate(163,0)"/>
<path d="M0 0 C0.66 0.33 1.32 0.66 2 1 C2 4.3 2 7.6 2 11 C-4.05061546 11.02472278 -10.10120149 11.04287086 -16.15185547 11.05493164 C-18.21012891 11.05995973 -20.26839878 11.06678306 -22.32666016 11.07543945 C-25.28549074 11.08757166 -28.24427408 11.09324357 -31.203125 11.09765625 C-32.12305237 11.10281754 -33.04297974 11.10797882 -33.99078369 11.11329651 C-34.8513739 11.11337204 -35.71196411 11.11344757 -36.59863281 11.11352539 C-37.35364075 11.115746 -38.10864868 11.11796661 -38.88653564 11.12025452 C-41.0393723 10.99775975 -42.93080737 10.59128419 -45 10 C-45 9.34 -45 8.68 -45 8 C-45.66 7.67 -46.32 7.34 -47 7 C-46.01 6.67 -45.02 6.34 -44 6 C-44 6.66 -44 7.32 -44 8 C-29.48 8 -14.96 8 0 8 C0 5.36 0 2.72 0 0 Z " fill="#183685" transform="translate(479,116)"/>
<path d="M0 0 C4.31244188 -0.05859908 8.62477974 -0.09379686 12.9375 -0.125 C14.14986328 -0.14175781 15.36222656 -0.15851563 16.61132812 -0.17578125 C33.31619699 -0.26632254 33.31619699 -0.26632254 38.8125 4.375 C39.534375 5.24125 40.25625 6.1075 41 7 C41.70125 7.66 42.4025 8.32 43.125 9 C45.20928999 11.22324266 46.69081018 13.24381091 48 16 C47.57421875 18.15625 47.57421875 18.15625 47 20 C46.484375 18.80375 45.96875 17.6075 45.4375 16.375 C42.13338015 9.82472731 37.43463869 6.12449277 30.52832031 3.64916992 C25.13086473 2.26332264 19.54341633 2.13152449 14 1.8125 C12.74832031 1.73064453 11.49664062 1.64878906 10.20703125 1.56445312 C7.13854166 1.36535266 4.06980089 1.17752067 1 1 C0.91020874 1.87773071 0.91020874 1.87773071 0.81860352 2.77319336 C0.36168089 7.08365902 -0.16556185 11.31699278 -1.0625 15.5625 C-1.23910156 16.40941406 -1.41570312 17.25632812 -1.59765625 18.12890625 C-1.73042969 18.74636719 -1.86320312 19.36382812 -2 20 C-2.33 20 -2.66 20 -3 20 C-3.08371548 18.54273061 -3.14036596 17.08391081 -3.1875 15.625 C-3.22230469 14.81289062 -3.25710938 14.00078125 -3.29296875 13.1640625 C-2.86820354 8.5765982 -1.4254195 4.3657155 0 0 Z " fill="#1C347E" transform="translate(294,71)"/>
<path d="M0 0 C0.185625 0.9590625 0.185625 0.9590625 0.375 1.9375 C0.684375 2.9584375 0.684375 2.9584375 1 4 C1.66 4.33 2.32 4.66 3 5 C2.01 6.485 2.01 6.485 1 8 C0.82788518 10.70716192 0.76438386 13.2964008 0.8125 16 C0.8218457 16.7623999 0.83119141 17.5247998 0.84082031 18.31030273 C0.87758527 20.54094581 0.93433687 22.77003861 1 25 C1.02964844 26.08410156 1.05929687 27.16820312 1.08984375 28.28515625 C1.43728842 34.31035524 2.51750634 40.51750634 7 45 C7.04063832 46.66617115 7.042721 48.33388095 7 50 C7.66 50 8.32 50 9 50 C10.0625 52.375 10.0625 52.375 11 55 C10.67 55.66 10.34 56.32 10 57 C-1.17919001 41.90809348 -3.56729332 24.65779602 -1 6.375 C-0.6736086 4.24892268 -0.34269897 2.12350972 0 0 Z " fill="#1B337D" transform="translate(397,127)"/>
<path d="M0 0 C12.87 0 25.74 0 39 0 C39 3.96 39 7.92 39 12 C38.67 12 38.34 12 38 12 C38 8.37 38 4.74 38 1 C26.12 1 14.24 1 2 1 C2.39756764 11.1846148 2.39756764 11.1846148 5 17 C5.13525391 19.12817383 5.13525391 19.12817383 4.9765625 21.20703125 C4.925 21.95791016 4.8734375 22.70878906 4.8203125 23.48242188 C4.75585938 24.25134766 4.69140625 25.02027344 4.625 25.8125 C4.56828125 26.60076172 4.5115625 27.38902344 4.453125 28.20117188 C4.31249026 30.13489961 4.15766112 32.06758595 4 34 C3.67 34 3.34 34 3 34 C2.49358702 29.64655438 1.99601358 25.29214175 1.5 20.9375 C1.35691406 19.70837891 1.21382812 18.47925781 1.06640625 17.21289062 C0.93105469 16.01728516 0.79570313 14.82167969 0.65625 13.58984375 C0.53056641 12.49534912 0.40488281 11.40085449 0.27539062 10.27319336 C-0.01181039 6.85962595 0 3.42562795 0 0 Z " fill="#1B337B" transform="translate(527,78)"/>
<path d="M0 0 C13.53 0 27.06 0 41 0 C40.04805076 4.75974622 38.76344557 7.62579797 36.4375 11.8125 C36.10814453 12.40998047 35.77878906 13.00746094 35.43945312 13.62304688 C34.63226733 15.08533998 33.81695083 16.5431399 33 18 C32 15 32 15 33.21484375 12.1171875 C33.78332031 11.04726562 34.35179687 9.97734375 34.9375 8.875 C36.97536604 5.60989586 36.97536604 5.60989586 38 2 C26.45 2 14.9 2 3 2 C1.68 4.64 0.36 7.28 -1 10 C-1.66 10 -2.32 10 -3 10 C-3.33 11.65 -3.66 13.3 -4 15 C-4.66 15 -5.32 15 -6 15 C-5.56856647 13.62308448 -5.12948836 12.24856381 -4.6875 10.875 C-4.44386719 10.10929687 -4.20023438 9.34359375 -3.94921875 8.5546875 C-2.85531153 5.61059153 -1.40458778 2.80917555 0 0 Z " fill="#1B327E" transform="translate(608,78)"/>
<path d="M0 0 C0.66 0.33 1.32 0.66 2 1 C2 1.99 2 2.98 2 4 C1.34 4 0.68 4 0 4 C0.061875 5.03125 0.12375 6.0625 0.1875 7.125 C-0.01135595 11.23468973 -0.94467803 13.48882496 -3 17 C-2.01 17.33 -1.02 17.66 0 18 C0 18.66 0 19.32 0 20 C-0.66 20 -1.32 20 -2 20 C-1.65555119 22.47266765 -1.65555119 22.47266765 -1 25 C-0.34 25.33 0.32 25.66 1 26 C1 26.66 1 27.32 1 28 C-1.64 27.67 -4.28 27.34 -7 27 C-6.69192173 17.29553451 -3.40571804 8.97776438 0 0 Z " fill="#1E3A95" transform="translate(7,83)"/>
<path d="M0 0 C0.33 0 0.66 0 1 0 C1.05474393 2.7919405 1.09402442 5.58277233 1.125 8.375 C1.14175781 9.14972656 1.15851562 9.92445313 1.17578125 10.72265625 C1.22738755 16.96701904 0.2759874 21.62006301 -1 28 C-8.59 28 -16.18 28 -24 28 C-23.67 27.34 -23.34 26.68 -23 26 C-12.605 25.505 -12.605 25.505 -2 25 C-1.90912109 22.41865234 -1.90912109 22.41865234 -1.81640625 19.78515625 C-1.73202109 17.5442614 -1.64737209 15.30337647 -1.5625 13.0625 C-1.52318359 11.92619141 -1.48386719 10.78988281 -1.44335938 9.61914062 C-1.40146484 8.53955078 -1.35957031 7.45996094 -1.31640625 6.34765625 C-1.27974854 5.34742432 -1.24309082 4.34719238 -1.20532227 3.31665039 C-1 1 -1 1 0 0 Z " fill="#1E367E" transform="translate(514,119)"/>
<path d="M0 0 C1.14247444 0.0541935 1.14247444 0.0541935 2.30802917 0.10948181 C3.10001205 0.11938644 3.89199493 0.12929108 4.70797729 0.13949585 C7.2263219 0.17854272 9.74023211 0.26632651 12.25724792 0.35557556 C13.96877329 0.39070287 15.68036732 0.42263942 17.39201355 0.45127869 C21.57795504 0.52827038 25.76060104 0.64896937 29.94474792 0.79307556 C29.61474792 1.45307556 29.28474792 2.11307556 28.94474792 2.79307556 C18.05474792 2.79307556 7.16474792 2.79307556 -4.05525208 2.79307556 C-4.38525208 3.78307556 -4.71525208 4.77307556 -5.05525208 5.79307556 C-6.36499205 7.14959196 -7.70327349 8.47865194 -9.05525208 9.79307556 C-9.91751485 10.84901583 -10.77143498 11.91181258 -11.61775208 12.98057556 C-14.05525208 15.79307556 -14.05525208 15.79307556 -17.05525208 16.79307556 C-20.24275208 15.85557556 -20.24275208 15.85557556 -23.05525208 14.79307556 C-22.18706848 14.36575134 -22.18706848 14.36575134 -21.30134583 13.92979431 C-19.20510999 12.8689167 -17.14982492 11.7845802 -15.11775208 10.60557556 C-14.14515442 10.05836853 -14.14515442 10.05836853 -13.15290833 9.50010681 C-11.04400868 7.78392591 -10.29278752 6.53372014 -8.94685364 4.22911072 C-6.44678017 0.68909901 -4.4388256 -0.00325789 0 0 Z " fill="#213679" transform="translate(480.0552520751953,158.20692443847656)"/>
<path d="M0 0 C1.5 1 1.5 1 3 3 C3.06305529 4.95471414 3.12265697 6.91483146 3.0078125 8.8671875 C2.92806358 11.03884489 2.92806358 11.03884489 3.4609375 13.27734375 C4.27675186 17.39779743 4.38983924 21.54752516 4.60546875 25.73632812 C4.77388437 29.49290933 4.77388437 29.49290933 6 33 C6.08308638 34.37548156 6.10736016 35.75485796 6.09765625 37.1328125 C6.09282227 38.34130859 6.09282227 38.34130859 6.08789062 39.57421875 C6.07951172 40.41597656 6.07113281 41.25773437 6.0625 42.125 C6.05798828 42.97449219 6.05347656 43.82398438 6.04882812 44.69921875 C6.03702874 46.79950909 6.01909306 48.8997633 6 51 C5.67 51 5.34 51 5 51 C4.28324905 44.70169508 3.57171842 38.40281595 2.86376953 32.10351562 C2.62245166 29.96177906 2.37995046 27.82017548 2.13623047 25.67871094 C1.78560256 22.59604762 1.43926899 19.5129271 1.09375 16.4296875 C0.9843811 15.47633514 0.87501221 14.52298279 0.7623291 13.54074097 C0.25765761 9.00098224 -0.13324485 4.57696049 0 0 Z " fill="#1A347F" transform="translate(531,115)"/>
<path d="M0 0 C0.93423645 3.01031744 1.04449911 3.86650268 0 7 C-1.8125 7.625 -1.8125 7.625 -4 8 C-7.28878404 8.59796073 -8.79625376 9.46569182 -11 12 C-11.99 11.67 -12.98 11.34 -14 11 C-14.2165625 12.3303125 -14.2165625 12.3303125 -14.4375 13.6875 C-14.91019978 16.47117646 -15.43070185 19.23483757 -16 22 C-18.56616632 18.15075052 -18.55097676 15.5650696 -19 11 C-17.82244141 10.56300781 -17.82244141 10.56300781 -16.62109375 10.1171875 C-9.99633198 7.53231113 -5.0916581 4.9759386 0 0 Z " fill="#1D3583" transform="translate(20,160)"/>
<path d="M0 0 C1.69528255 1.64391035 3.35505508 3.30631597 5 5 C5.63550781 5.65097656 6.27101563 6.30195313 6.92578125 6.97265625 C7.56902344 7.66230469 8.21226563 8.35195312 8.875 9.0625 C9.49117187 9.71347656 10.10734375 10.36445313 10.7421875 11.03515625 C12 13 12 13 11.76245117 14.89331055 C10.88254943 17.3245216 9.77252067 18.7416272 8.05859375 20.671875 C7.18364258 21.66767578 7.18364258 21.66767578 6.29101562 22.68359375 C5.67935547 23.36550781 5.06769531 24.04742187 4.4375 24.75 C3.82197266 25.44738281 3.20644531 26.14476562 2.57226562 26.86328125 C1.05438016 28.58119814 -0.46978812 30.29306657 -2 32 C-2.33 31.34 -2.66 30.68 -3 30 C-1.74629485 26.23888456 -0.15009476 24.80158119 3.0625 22.5625 C5.16357686 20.86808318 5.97843578 19.46878019 7 17 C7.66 17 8.32 17 9 17 C9 15.68 9 14.36 9 13 C9 12.34 9 11.68 9 11 C8.236875 10.979375 7.47375 10.95875 6.6875 10.9375 C4 10 4 10 2.25 6.625 C1.48971899 4.42018507 0.73751177 2.21253531 0 0 Z " fill="#1B3179" transform="translate(104,123)"/>
<path d="M0 0 C3.33333333 1.66666667 6.66666667 3.33333333 10 5 C7 7 7 7 3.5625 7.3125 C-0.09313113 7.67289911 -0.09313113 7.67289911 -2.25 10.25 C-3.87934618 12.81040113 -5.49419244 15.36483677 -7 18 C-7.33 17.34 -7.66 16.68 -8 16 C-7.37915039 14.30419922 -7.37915039 14.30419922 -6.34765625 12.3046875 C-5.98349609 11.58925781 -5.61933594 10.87382813 -5.24414062 10.13671875 C-4.85419922 9.39035156 -4.46425781 8.64398438 -4.0625 7.875 C-3.67642578 7.12089844 -3.29035156 6.36679688 -2.89257812 5.58984375 C-1.93547868 3.72290903 -0.96863894 1.86097372 0 0 Z " fill="#1B3684" transform="translate(16,65)"/>
<path d="M0 0 C0.33 0 0.66 0 1 0 C0.67 2.64 0.34 5.28 0 8 C9.24 8 18.48 8 28 8 C28 8.66 28 9.32 28 10 C23.93829842 10.22647063 19.87572892 10.42799496 15.8125 10.625 C14.08676758 10.72167969 14.08676758 10.72167969 12.32617188 10.8203125 C11.21435547 10.871875 10.10253906 10.9234375 8.95703125 10.9765625 C7.93585205 11.02893066 6.91467285 11.08129883 5.86254883 11.13525391 C2.82634236 10.99179477 0.73398914 10.28684147 -2 9 C-1.34 6.03 -0.68 3.06 0 0 Z " fill="#1B3579" transform="translate(276,157)"/>
<path d="M0 0 C0 0.99 0 1.98 0 3 C-0.639375 3.268125 -1.27875 3.53625 -1.9375 3.8125 C-4.33131686 4.88667752 -4.33131686 4.88667752 -5 8 C-7.28515625 9.16796875 -7.28515625 9.16796875 -10.0625 10.1875 C-10.98160156 10.53167969 -11.90070313 10.87585937 -12.84765625 11.23046875 C-13.55792969 11.48441406 -14.26820313 11.73835938 -15 12 C-15 12.66 -15 13.32 -15 14 C-15.66 14 -16.32 14 -17 14 C-17 13.34 -17 12.68 -17 12 C-20.63 12 -24.26 12 -28 12 C-28.33 11.34 -28.66 10.68 -29 10 C-28.17757812 9.97421875 -27.35515625 9.9484375 -26.5078125 9.921875 C-15.91485536 9.38366471 -7.79892763 7.38845775 0 0 Z " fill="#1D317A" transform="translate(155,18)"/>
<path d="M0 0 C-1.375 1.5 -1.375 1.5 -3 3 C-3.66 3 -4.32 3 -5 3 C-5.33 3.66 -5.66 4.32 -6 5 C-7.80859375 5.5390625 -7.80859375 5.5390625 -10 6 C-11.36215778 6.43400805 -12.71668802 6.89268588 -14.0625 7.375 C-15.06990234 7.72691406 -15.06990234 7.72691406 -16.09765625 8.0859375 C-18.24536446 9.11789586 -19.52597861 10.12948552 -21 12 C-20.76956136 14.65466049 -20.76956136 14.65466049 -20 17 C-21.32 15.68 -22.64 14.36 -24 13 C-22.57985518 9.44940196 -21.11017819 8.15746708 -17.75390625 6.38671875 C-16.91666016 5.94392578 -16.07941406 5.50113281 -15.21679688 5.04492188 C-14.34087891 4.59697266 -13.46496094 4.14902344 -12.5625 3.6875 C-11.69044922 3.22021484 -10.81839844 2.75292969 -9.91992188 2.27148438 C-3.3858817 -1.12862723 -3.3858817 -1.12862723 0 0 Z " fill="#203584" transform="translate(84,9)"/>
<path d="M0 0 C1.093125 0.37125 2.18625 0.7425 3.3125 1.125 C4.529375 1.41375 5.74625 1.7025 7 2 C7.99 1.34 8.98 0.68 10 0 C10.99 0.33 11.98 0.66 13 1 C15.29453495 0.90593246 15.29453495 0.90593246 17.6875 0.5625 C18.49574219 0.46066406 19.30398437 0.35882813 20.13671875 0.25390625 C21.05904297 0.12822266 21.05904297 0.12822266 22 0 C22 0.33 22 0.66 22 1 C21.03900391 1.25523437 21.03900391 1.25523437 20.05859375 1.515625 C14.49634683 3.07404888 9.88676286 4.91921472 5 8 C2.525 4.04 2.525 4.04 0 0 Z " fill="#1C3588" transform="translate(15,208)"/>
<path d="M0 0 C0.33 0.99 0.66 1.98 1 3 C-0.3125 5.1875 -0.3125 5.1875 -2 7 C-2.66 7 -3.32 7 -4 7 C-4.23074219 7.54914063 -4.46148437 8.09828125 -4.69921875 8.6640625 C-6.36405263 11.65376418 -8.47750599 13.87547118 -10.8125 16.375 C-14.32407296 20.17115774 -17.74373927 23.9839451 -21 28 C-21.66 27.67 -22.32 27.34 -23 27 C-22.45472656 26.40574219 -21.90945312 25.81148437 -21.34765625 25.19921875 C-15.67769221 18.96710443 -10.29846938 12.54878517 -5 6 C-3.34120892 3.99321079 -1.67209535 1.99572671 0 0 Z " fill="#1B3174" transform="translate(130,173)"/>
<path d="M0 0 C2.97 0.495 2.97 0.495 6 1 C3.89421628 3.10578372 1.80872776 5.16675016 -0.4375 7.125 C-4.99574015 12.2391231 -7.88862346 18.23509932 -9 25 C-9.33 25 -9.66 25 -10 25 C-9.73197119 18.46009701 -9.06603228 12.36996677 -5 7 C-4.01 6.67 -3.02 6.34 -2 6 C-2.33 5.01 -2.66 4.02 -3 3 C-1.68 2.67 -0.36 2.34 1 2 C0.67 1.34 0.34 0.68 0 0 Z " fill="#203278" transform="translate(116,250)"/>
<path d="M0 0 C0.33 0.66 0.66 1.32 1 2 C-0.73301497 5.77185612 -2.96551382 7.82969034 -6.19140625 10.34765625 C-9.45405328 13.32843313 -12.04626356 16.89903035 -14.75390625 20.37890625 C-16.9747993 22.97059188 -19.2716645 24.96213956 -22 27 C-20.49993609 23.55220914 -18.49590738 21.17639467 -15.9375 18.4375 C-11.72217553 13.84702529 -7.75624353 9.1029902 -3.84765625 4.25 C-2 2 -2 2 0 0 Z " fill="#1B3071" transform="translate(218,71)"/>
<path d="M0 0 C0.66 0 1.32 0 2 0 C1.835 0.7425 1.67 1.485 1.5 2.25 C0.40796194 10.44028548 0.56650048 18.09112656 3 26 C2.01 25.67 1.02 25.34 0 25 C-2.8844923 18.47193847 -2.5803407 11.0067605 -2 4 C-0.984375 1.57421875 -0.984375 1.57421875 0 0 Z " fill="#1A327A" transform="translate(205,227)"/>
<path d="M0 0 C0.66 0 1.32 0 2 0 C-0.49922851 5.22785481 -2.86966994 9.99378184 -8 13 C-13.77406711 13.32362436 -19.49499399 11.55766647 -25 10 C-25 9.67 -25 9.34 -25 9 C-18.73 9 -12.46 9 -6 9 C-5.34 7.68 -4.68 6.36 -4 5 C-2 2.25 -2 2.25 0 0 Z " fill="#1A307A" transform="translate(62,198)"/>
<path d="M0 0 C0.66 0.33 1.32 0.66 2 1 C1.55527344 1.43570313 1.11054688 1.87140625 0.65234375 2.3203125 C-3.06801535 6.13547838 -3.06801535 6.13547838 -4.1875 11.1875 C-2.74933314 14.59368467 -1.04458458 15.97027695 2 18 C1.67 18.99 1.34 19.98 1 21 C-0.66666667 19.33333333 -2.33333333 17.66666667 -4 16 C-4.78375 15.319375 -5.5675 14.63875 -6.375 13.9375 C-6.91125 13.298125 -7.4475 12.65875 -8 12 C-7.65403033 8.34809789 -5.85837434 6.39095383 -3.4375 3.75 C-2.79683594 3.04359375 -2.15617188 2.3371875 -1.49609375 1.609375 C-0.75552734 0.81273438 -0.75552734 0.81273438 0 0 Z " fill="#17327C" transform="translate(170,127)"/>
<path d="M0 0 C0.31453125 0.79664063 0.6290625 1.59328125 0.953125 2.4140625 C3.21260535 8.00831807 5.37249184 13.16332246 9 18 C6.5625 17.3125 6.5625 17.3125 4 16 C3.1875 13.375 3.1875 13.375 3 11 C2.34 11 1.68 11 1 11 C-0.60355101 7.49223216 -1.22036864 4.85645121 -1 1 C-1.61488281 1.22816406 -2.22976562 1.45632812 -2.86328125 1.69140625 C-3.67152344 1.97886719 -4.47976562 2.26632813 -5.3125 2.5625 C-6.51326172 2.99755859 -6.51326172 2.99755859 -7.73828125 3.44140625 C-10 4 -10 4 -13 3 C-11.58603098 2.49242138 -10.16868271 1.99425075 -8.75 1.5 C-7.96109375 1.2215625 -7.1721875 0.943125 -6.359375 0.65625 C-4 0 -4 0 0 0 Z " fill="#1B2F77" transform="translate(102,2)"/>
<path d="M0 0 C0.66 0.33 1.32 0.66 2 1 C-2.93193336 7.0607981 -7.8822488 13.09490247 -13 19 C-13 15.52710626 -12.35830457 13.19201574 -11 10 C-9.0625 8.875 -9.0625 8.875 -7 8 C-5.98758315 6.67607028 -4.98560611 5.34400833 -4 4 C-3.34 4 -2.68 4 -2 4 C-1.34 2.68 -0.68 1.36 0 0 Z " fill="#1A337E" transform="translate(87,169)"/>
<path d="M0 0 C0.99 0.33 1.98 0.66 3 1 C2.18208984 1.89138672 2.18208984 1.89138672 1.34765625 2.80078125 C-4.32519011 9.03606366 -9.7178971 15.43171129 -15 22 C-15.33 21.01 -15.66 20.02 -16 19 C-14.85546875 17.17578125 -14.85546875 17.17578125 -13.1875 15.3125 C-12.64480469 14.68988281 -12.10210937 14.06726563 -11.54296875 13.42578125 C-10 12 -10 12 -8 12 C-7.67 10.68 -7.34 9.36 -7 8 C-6.34 8 -5.68 8 -5 8 C-4.731875 7.4225 -4.46375 6.845 -4.1875 6.25 C-2.98280141 3.9674132 -1.59201885 2.0262058 0 0 Z " fill="#1B327C" transform="translate(168,74)"/>
<path d="M0 0 C0.78439453 0.00064453 1.56878906 0.00128906 2.37695312 0.00195312 C3.19228516 0.01806641 4.00761719 0.03417969 4.84765625 0.05078125 C5.65912109 0.04755859 6.47058594 0.04433594 7.30664062 0.04101562 C11.53847287 0.07920279 14.12025065 0.43008788 17.91015625 2.36328125 C18.90015625 2.36328125 19.89015625 2.36328125 20.91015625 2.36328125 C20.58015625 3.35328125 20.25015625 4.34328125 19.91015625 5.36328125 C19.22050781 5.14671875 18.53085938 4.93015625 17.8203125 4.70703125 C9.08052824 2.11746554 1.83530495 1.844107 -7.08984375 3.36328125 C-4.81261785 0.65982943 -3.52528217 -0.01474013 0 0 Z " fill="#1A347C" transform="translate(231.08984375,206.63671875)"/>
<path d="M0 0 C8.09160444 4.00285315 8.09160444 4.00285315 10.359375 6.4921875 C12.36163416 8.33235902 14.09763283 8.89927956 16.6875 9.6875 C17.49574219 9.93886719 18.30398438 10.19023437 19.13671875 10.44921875 C19.75160156 10.63097656 20.36648438 10.81273437 21 11 C21 11.66 21 12.32 21 13 C22.32 13.33 23.64 13.66 25 14 C21.25568624 15.24810459 19.78965614 14.254336 16.34960938 12.59765625 C15.63611328 12.23542969 14.92261719 11.87320313 14.1875 11.5 C13.46498047 11.13777344 12.74246094 10.77554688 11.99804688 10.40234375 C6.78355879 7.67388782 3.30388202 4.95582302 0 0 Z " fill="#1C347C" transform="translate(408,184)"/>
<path d="M0 0 C0.66 0 1.32 0 2 0 C1.27676077 9.16103027 -3.90892561 16.48396693 -10 23 C-10.33 22.34 -10.66 21.68 -11 21 C-10.04177447 18.38665764 -8.94720913 16.94880885 -6.9375 15 C-4.88041953 12.87656209 -4.58013242 11.80397338 -4 9 C-3.34 8.67 -2.68 8.34 -2 8 C-1.31527335 6.11235097 -1.31527335 6.11235097 -0.875 3.9375 C-0.70742188 3.20402344 -0.53984375 2.47054687 -0.3671875 1.71484375 C-0.24601562 1.14894531 -0.12484375 0.58304688 0 0 Z " fill="#1A2F78" transform="translate(507,161)"/>
<path d="M0 0 C0.66 0.33 1.32 0.66 2 1 C2 1.99 2 2.98 2 4 C1.34 4 0.68 4 0 4 C0.103125 4.928125 0.20625 5.85625 0.3125 6.8125 C0.36973371 12.37561673 -2.54489742 17.1511724 -5 22 C-5.66 21.67 -6.32 21.34 -7 21 C-4.69 14.07 -2.38 7.14 0 0 Z " fill="#223981" transform="translate(7,83)"/>
<path d="M0 0 C1.98 0 3.96 0 6 0 C6 0.66 6 1.32 6 2 C6.928125 1.690625 6.928125 1.690625 7.875 1.375 C8.57625 1.25125 9.2775 1.1275 10 1 C12 3 12 3 12 6 C12.639375 6.61875 13.27875 7.2375 13.9375 7.875 C16.27990815 10.28839022 16.63515416 11.7163874 17 15 C16.505 14.319375 16.01 13.63875 15.5 12.9375 C11.24949383 7.94315525 6.48245153 2.82318949 0 1 C0 0.67 0 0.34 0 0 Z " fill="#1D3480" transform="translate(148,249)"/>
<path d="M0 0 C0.66 0.33 1.32 0.66 2 1 C-3.46164418 4.90659271 -8.52469967 8.10206714 -15 10 C-15.99 9.67 -16.98 9.34 -18 9 C-15.99226044 6.99226044 -14.63126383 6.00607146 -12 5 C-9.75 5.375 -9.75 5.375 -8 6 C-8 5.34 -8 4.68 -8 4 C-7.01 4 -6.02 4 -5 4 C-4.67 3.34 -4.34 2.68 -4 2 C-2.0625 0.8125 -2.0625 0.8125 0 0 Z " fill="#1B327F" transform="translate(489,188)"/>
<path d="M0 0 C3.62085065 1.20695022 4.3412852 2.46801781 6.5625 5.5 C8.831494 8.7783147 8.831494 8.7783147 12 11 C12 11.66 12 12.32 12 13 C12.99 13.33 13.98 13.66 15 14 C16.75 16.4375 16.75 16.4375 18 19 C17.67 19.66 17.34 20.32 17 21 C0 2.50462963 0 2.50462963 0 0 Z " fill="#1B2B69" transform="translate(104,70)"/>
<path d="M0 0 C0.33 0.99 0.66 1.98 1 3 C0.01 3 -0.98 3 -2 3 C-2 3.66 -2 4.32 -2 5 C-11.8380744 10.05908096 -11.8380744 10.05908096 -16.6875 9.8125 C-17.450625 9.544375 -18.21375 9.27625 -19 9 C-16.70295166 6.70295166 -15.41124523 6.43171775 -12.3125 5.625 C-7.69355551 4.31775156 -4.05101694 2.55390198 0 0 Z " fill="#1B327A" transform="translate(256,59)"/>
<path d="M0 0 C2.56364399 0.62057657 5.12584926 1.24629199 7.6875 1.875 C8.40873047 2.04902344 9.12996094 2.22304688 9.87304688 2.40234375 C13.72028845 3.35097866 17.35715569 4.40490841 21 6 C21 6.33 21 6.66 21 7 C17.77935622 7.08946233 15.10247623 6.82732699 12 6 C11.01 6 10.02 6 9 6 C8.34 5.34 7.68 4.68 7 4 C4.68234271 3.28072705 2.34904126 2.6090107 0 2 C0 1.34 0 0.68 0 0 Z " fill="#1A347E" transform="translate(167,0)"/>
<path d="M0 0 C0.33 0.66 0.66 1.32 1 2 C0.19555664 3.87939453 0.19555664 3.87939453 -1.08984375 6.1328125 C-1.54423828 6.93847656 -1.99863281 7.74414062 -2.46679688 8.57421875 C-2.95212891 9.41597656 -3.43746094 10.25773438 -3.9375 11.125 C-4.41896484 11.97449219 -4.90042969 12.82398438 -5.39648438 13.69921875 C-6.59057183 15.80365011 -7.79196837 17.90355191 -9 20 C-9.66 19.34 -10.32 18.68 -11 18 C-9.47873639 15.46456066 -7.96725062 12.95148239 -6.3125 10.5 C-4.86324183 7.73950824 -4.73684346 6.07015965 -5 3 C-4.01 2.67 -3.02 2.34 -2 2 C-1.34 1.34 -0.68 0.68 0 0 Z " fill="#19317B" transform="translate(607,155)"/>
<path d="M0 0 C2.3125 0.125 2.3125 0.125 5 1 C6.0394002 2.9798099 7.0288775 4.98582 8 7 C10.54545248 10.11336219 13.2531039 13.06388778 16 16 C15.67 16.66 15.34 17.32 15 18 C13.24471987 16.12971875 11.49581545 14.2540838 9.75 12.375 C9.01330078 11.59189453 9.01330078 11.59189453 8.26171875 10.79296875 C5.1075409 7.38645667 2.47712115 3.9280064 0 0 Z " fill="#193174" transform="translate(187,167)"/>
<path d="M0 0 C0.66 0.66 1.32 1.32 2 2 C-2.34791253 7.99712073 -7.94293949 11.82052217 -14 16 C-14.33 15.34 -14.66 14.68 -15 14 C-14.28972656 13.44570312 -13.57945312 12.89140625 -12.84765625 12.3203125 C-11.92855469 11.59585938 -11.00945312 10.87140625 -10.0625 10.125 C-9.14597656 9.40570313 -8.22945313 8.68640625 -7.28515625 7.9453125 C-4.93990515 6.20579164 -4.93990515 6.20579164 -4 4 C-3.01 4 -2.02 4 -1 4 C-0.67 2.68 -0.34 1.36 0 0 Z " fill="#183279" transform="translate(361,170)"/>
<path d="M0 0 C1.485 0.99 1.485 0.99 3 2 C3.37231445 4.58203125 3.37231445 4.58203125 3.36328125 7.8125 C3.36263672 8.97007813 3.36199219 10.12765625 3.36132812 11.3203125 C3.34521484 12.53460938 3.32910156 13.74890625 3.3125 15 C3.31572266 16.21429688 3.31894531 17.42859375 3.32226562 18.6796875 C3.26681548 27.73318452 3.26681548 27.73318452 1 30 C1.00523682 29.33991943 1.01047363 28.67983887 1.01586914 27.99975586 C1.03678951 24.97901378 1.0497078 21.958287 1.0625 18.9375 C1.07087891 17.89916016 1.07925781 16.86082031 1.08789062 15.79101562 C1.10496442 10.41276931 0.95415152 5.29666789 0 0 Z " fill="#1A3676" transform="translate(342,91)"/>
<path d="M0 0 C3.50407634 3.46626256 6.91170694 6.99685515 10.25 10.625 C11.12140625 11.56601563 11.9928125 12.50703125 12.890625 13.4765625 C15 16 15 16 16 19 C14 19 14 19 12.51953125 17.53125 C11.95621094 16.8609375 11.39289063 16.190625 10.8125 15.5 C8.89704583 13.23445232 6.98525067 10.98385006 4.984375 8.79296875 C4.35015625 8.09816406 3.7159375 7.40335937 3.0625 6.6875 C2.47597656 6.05199219 1.88945313 5.41648437 1.28515625 4.76171875 C0 3 0 3 0 0 Z " fill="#163473" transform="translate(69,82)"/>
<path d="M0 0 C0.33 0 0.66 0 1 0 C1.63019694 8.03501094 1.63019694 8.03501094 -1 12.0625 C-1.66 12.701875 -2.32 13.34125 -3 14 C-2.34 15.32 -1.68 16.64 -1 18 C-3.475 17.01 -3.475 17.01 -6 16 C-5.731875 15.484375 -5.46375 14.96875 -5.1875 14.4375 C-2.88996248 9.72150193 -0.7906619 5.21836852 0 0 Z " fill="#1D3075" transform="translate(71,243)"/>
<path d="M0 0 C0.66 0 1.32 0 2 0 C1.47606294 5.86809507 0.23891142 10.54873741 -2 16 C-2.66 15.34 -3.32 14.68 -4 14 C-3.53846154 7.53846154 -3.53846154 7.53846154 -1 5 C-0.35232207 2.42938689 -0.35232207 2.42938689 0 0 Z " fill="#183381" transform="translate(381,130)"/>
<path d="M0 0 C3.3907519 1.45317939 5.41300312 3.41300312 8 6 C8.99 6.33 9.98 6.66 11 7 C12.62323754 10.75907641 13.23994929 13.92086213 13 18 C11.27846662 15.41769993 9.73522466 12.81207871 8.1875 10.125 C5.8150426 6.13787258 3.46929131 3.06113939 0 0 Z " fill="#1B3178" transform="translate(14,114)"/>
<path d="M0 0 C2.48046875 1.05078125 2.48046875 1.05078125 5 3 C5.48828125 6.35546875 5.48828125 6.35546875 5.3125 10.1875 C5.26738281 11.45980469 5.22226563 12.73210938 5.17578125 14.04296875 C5.11777344 15.01878906 5.05976562 15.99460937 5 17 C3.03470991 13.54792524 2.2253523 10.11523774 1.375 6.25 C1.11460938 5.07953125 0.85421875 3.9090625 0.5859375 2.703125 C0.39257812 1.81109375 0.19921875 0.9190625 0 0 Z " fill="#1C377C" transform="translate(64,26)"/>
<path d="M0 0 C-1.95330868 1.03041513 -3.91281528 2.0490893 -5.875 3.0625 C-6.96554687 3.63097656 -8.05609375 4.19945312 -9.1796875 4.78515625 C-10.11039062 5.18605469 -11.04109375 5.58695313 -12 6 C-12.66 5.67 -13.32 5.34 -14 5 C-13.67 4.34 -13.34 3.68 -13 3 C-12.01 3 -11.02 3 -10 3 C-10 2.34 -10 1.68 -10 1 C-3.375 -1.125 -3.375 -1.125 0 0 Z " fill="#1B337D" transform="translate(346,187)"/>
<path d="M0 0 C1.1484375 1.671875 1.1484375 1.671875 2 4 C1.1015625 6.578125 1.1015625 6.578125 -0.375 9.25 C-1.09816406 10.58804688 -1.09816406 10.58804688 -1.8359375 11.953125 C-2.22007812 12.62859375 -2.60421875 13.3040625 -3 14 C-3.66 14 -4.32 14 -5 14 C-5.33 14.66 -5.66 15.32 -6 16 C-5.37183502 12.05050296 -4.1354471 8.80107972 -2.4375 5.1875 C-1.98246094 4.21167969 -1.52742187 3.23585937 -1.05859375 2.23046875 C-0.70925781 1.49441406 -0.35992188 0.75835937 0 0 Z " fill="#192F78" transform="translate(578,143)"/>
<path d="M0 0 C0.74765625 0.40992187 1.4953125 0.81984375 2.265625 1.2421875 C3.74289063 2.05042969 3.74289063 2.05042969 5.25 2.875 C6.71179688 3.67550781 6.71179688 3.67550781 8.203125 4.4921875 C10.45130408 5.70419466 12.7072805 6.87547567 15 8 C12.69 8.66 10.38 9.32 8 10 C7.79375 9.401875 7.5875 8.80375 7.375 8.1875 C5.49073918 5.18981233 3.18867916 4.38638224 0 3 C0 2.01 0 1.02 0 0 Z " fill="#1A327E" transform="translate(111,20)"/>
<path d="M0 0 C0.99 0.33 1.98 0.66 3 1 C1.56760415 2.79574993 0.1288996 4.58646907 -1.3125 6.375 C-2.51326172 7.87160156 -2.51326172 7.87160156 -3.73828125 9.3984375 C-6 12 -6 12 -9 14 C-7.19135365 8.99144087 -4.72272786 5.72272786 -1 2 C-0.67 1.34 -0.34 0.68 0 0 Z " fill="#18307A" transform="translate(98,155)"/>
<path d="M0 0 C1.52519276 0.08937803 3.04681929 0.24537146 4.5625 0.4375 C5.38878906 0.53933594 6.21507812 0.64117187 7.06640625 0.74609375 C7.70449219 0.82988281 8.34257812 0.91367188 9 1 C9 1.33 9 1.66 9 2 C6.69 2.33 4.38 2.66 2 3 C2 3.99 2 4.98 2 6 C0.02 6 -1.96 6 -4 6 C-1.125 1.125 -1.125 1.125 0 0 Z " fill="#1D357F" transform="translate(223,65)"/>
<path d="M0 0 C0.66 0 1.32 0 2 0 C1.93993922 1.45947705 1.8511311 2.91779272 1.75 4.375 C1.70359375 5.18710938 1.6571875 5.99921875 1.609375 6.8359375 C1 9 1 9 -0.984375 10.1640625 C-1.98210937 10.57785156 -1.98210937 10.57785156 -3 11 C-3.33 11.66 -3.66 12.32 -4 13 C-4.66 12.67 -5.32 12.34 -6 12 C-4.02 8.04 -2.04 4.08 0 0 Z " fill="#1F337F" transform="translate(339,134)"/>
<path d="M0 0 C0.66 0 1.32 0 2 0 C1.41509121 6.14154225 0.45933748 12.00679849 -1 18 C-1.33 18 -1.66 18 -2 18 C-2.20852314 11.59370576 -2.1583195 6.07027358 0 0 Z " fill="#193179" transform="translate(287,101)"/>
<path d="M0 0 C-6.93 2.97 -6.93 2.97 -14 6 C-14.33 5.34 -14.66 4.68 -15 4 C-5.84090909 -1.46022727 -5.84090909 -1.46022727 0 0 Z " fill="#1A327D" transform="translate(201,264)"/>
<path d="M0 0 C0.66 1.32 1.32 2.64 2 4 C1.34 4 0.68 4 0 4 C-0.103125 4.70125 -0.20625 5.4025 -0.3125 6.125 C-1.09359003 9.39137647 -2.42058743 12.0471852 -4 15 C-4.66 15 -5.32 15 -6 15 C-4.40109514 9.80355921 -2.25861997 4.93387858 0 0 Z " fill="#19307D" transform="translate(585,128)"/>
<path d="M0 0 C0.99 0.33 1.98 0.66 3 1 C0.13462959 4.02455766 -2.26771055 6.1982051 -6 8 C-6.99 9.485 -6.99 9.485 -8 11 C-8.66 10.67 -9.32 10.34 -10 10 C-6.375 5.125 -6.375 5.125 -3 4 C-1.31461399 2.00334686 -1.31461399 2.00334686 0 0 Z " fill="#1E3989" transform="translate(418,92)"/>
<path d="M0 0 C0.66 0 1.32 0 2 0 C0.71746597 10.93025271 0.71746597 10.93025271 -2.625 14.1875 C-3.800625 15.0846875 -3.800625 15.0846875 -5 16 C-4.71125 15.154375 -4.4225 14.30875 -4.125 13.4375 C-2.99339986 9.97983291 -1.99064288 6.50027151 -1 3 C-0.67 2.01 -0.34 1.02 0 0 Z " fill="#1E327A" transform="translate(205,24)"/>
<path d="M0 0 C4.62 0 9.24 0 14 0 C14 1.32 14 2.64 14 4 C13.34 4 12.68 4 12 4 C12 3.34 12 2.68 12 2 C8.37 2 4.74 2 1 2 C0.67 1.34 0.34 0.68 0 0 Z " fill="#1C3788" transform="translate(126,28)"/>
<path d="M0 0 C3.91939465 3.80411834 7.49102731 7.81576108 11 12 C6.97953158 12 5.88273659 10.73859976 3 8 C0 2.82758621 0 2.82758621 0 0 Z " fill="#162B70" transform="translate(142,167)"/>
<path d="M0 0 C0.66 0.33 1.32 0.66 2 1 C-7.37209302 7.09302326 -7.37209302 7.09302326 -11 8 C-13.140625 7.03515625 -13.140625 7.03515625 -15 6 C-14.16855469 5.73445312 -13.33710938 5.46890625 -12.48046875 5.1953125 C-11.39378906 4.84210938 -10.30710937 4.48890625 -9.1875 4.125 C-8.10855469 3.77695313 -7.02960938 3.42890625 -5.91796875 3.0703125 C-2.86684198 2.08040347 -2.86684198 2.08040347 0 0 Z " fill="#1E317D" transform="translate(320,158)"/>
<path d="M0 0 C1.73546076 2.60319113 2.65175233 4.52267237 3.625 7.4375 C3.88539063 8.19933594 4.14578125 8.96117188 4.4140625 9.74609375 C5 12 5 12 5 16 C4.34 16 3.68 16 3 16 C2.71125 14.824375 2.4225 13.64875 2.125 12.4375 C1.16686279 8.5981073 0.10794489 4.7986682 -1 1 C-0.67 0.67 -0.34 0.34 0 0 Z " fill="#1B3276" transform="translate(380,71)"/>
<path d="M0 0 C0.66 0.33 1.32 0.66 2 1 C-0.31 3.64 -2.62 6.28 -5 9 C-8.73639216 7.75453595 -9.18756513 6.36595047 -11 3 C-9 4 -7 5 -5 6 C-3.35 4.02 -1.7 2.04 0 0 Z " fill="#193071" transform="translate(145,102)"/>
<path d="M0 0 C0.66 0.33 1.32 0.66 2 1 C-0.97 4.63 -3.94 8.26 -7 12 C-7.33 11.34 -7.66 10.68 -8 10 C-6.1869334 5.36660757 -4.05224029 2.8475202 0 0 Z " fill="#1A327B" transform="translate(185,55)"/>
<path d="M0 0 C2.97 0.495 2.97 0.495 6 1 C1.04087193 6.13623978 1.04087193 6.13623978 -2 8 C-2.99 7.67 -3.98 7.34 -5 7 C-4.01 6.67 -3.02 6.34 -2 6 C-2.33 5.01 -2.66 4.02 -3 3 C-1.68 2.67 -0.36 2.34 1 2 C0.67 1.34 0.34 0.68 0 0 Z " fill="#1C3584" transform="translate(116,250)"/>
<path d="M0 0 C0.474375 0.639375 0.94875 1.27875 1.4375 1.9375 C5.05420035 4.84850272 8.47204894 4.80649782 13 5 C12.01 5.495 12.01 5.495 11 6 C11 6.66 11 7.32 11 8 C4.63265306 7.63265306 4.63265306 7.63265306 1.5625 4.5625 C0 2 0 2 0 0 Z " fill="#1B3581" transform="translate(160,188)"/>
<path d="M0 0 C0.99 0.66 1.98 1.32 3 2 C0.69 4.64 -1.62 7.28 -4 10 C-4.33 8.68 -4.66 7.36 -5 6 C-4.34 6 -3.68 6 -3 6 C-2.87625 5.195625 -2.7525 4.39125 -2.625 3.5625 C-2.41875 2.716875 -2.2125 1.87125 -2 1 C-1.34 0.67 -0.68 0.34 0 0 Z " fill="#183480" transform="translate(69,188)"/>
<path d="M0 0 C3.91211733 1.15585285 6.8745041 2.35534962 10 5 C9.25 9.75 9.25 9.75 7 12 C7.33 10.02 7.66 8.04 8 6 C6.865625 5.38125 5.73125 4.7625 4.5625 4.125 C1.125 2.25 1.125 2.25 0 0 Z " fill="#1B2F74" transform="translate(200,12)"/>
<path d="M0 0 C0.66 0.33 1.32 0.66 2 1 C-0.64 2.65 -3.28 4.3 -6 6 C-5.67 7.98 -5.34 9.96 -5 12 C-6.32 10.68 -7.64 9.36 -9 8 C-7.94660446 4.72276944 -6.36236741 3.39539906 -3.5 1.6875 C-2.345 1.130625 -1.19 0.57375 0 0 Z " fill="#1E2E77" transform="translate(69,14)"/>
<path d="M0 0 C0.99 0.99 1.98 1.98 3 3 C1.89210592 6.32368224 1.51563783 6.61563093 -1.375 8.25 C-1.98085937 8.60578125 -2.58671875 8.9615625 -3.2109375 9.328125 C-5 10 -5 10 -8 9 C-7.401875 8.71125 -6.80375 8.4225 -6.1875 8.125 C-3.80672208 6.95257974 -3.80672208 6.95257974 -1 5 C-0.27034634 2.43717258 -0.27034634 2.43717258 0 0 Z " fill="#1C3171" transform="translate(208,253)"/>
<path d="M0 0 C1.32 0.66 2.64 1.32 4 2 C1 4 1 4 -1 4 C-1.33 4.99 -1.66 5.98 -2 7 C-4.5625 8.1875 -4.5625 8.1875 -7 9 C-6.02180976 7.68677212 -5.0424189 6.37443848 -4.0625 5.0625 C-3.51722656 4.33160156 -2.97195312 3.60070312 -2.41015625 2.84765625 C-1 1 -1 1 0 0 Z " fill="#173179" transform="translate(138,164)"/>
<path d="M0 0 C1 3 1 3 -0.21484375 5.69921875 C-0.78332031 6.68535156 -1.35179687 7.67148438 -1.9375 8.6875 C-2.50339844 9.68136719 -3.06929688 10.67523438 -3.65234375 11.69921875 C-4.31943359 12.83810547 -4.31943359 12.83810547 -5 14 C-6 11 -6 11 -5.29296875 9.0625 C-4.74576172 8.0415625 -4.74576172 8.0415625 -4.1875 7 C-3.83042969 6.319375 -3.47335937 5.63875 -3.10546875 4.9375 C-2.14192431 3.24874367 -1.07850549 1.61775824 0 0 Z " fill="#192F75" transform="translate(377,146)"/>
<path d="M0 0 C0.33 0 0.66 0 1 0 C0.40840281 4.83137707 -0.43055425 9.38398308 -2 14 C-2.99 14.495 -2.99 14.495 -4 15 C-3.43179252 9.54520815 -2.05362055 5.08940744 0 0 Z " fill="#1C327B" transform="translate(402,112)"/>
<path d="M0 0 C-1.12451727 2.9719385 -2.22293791 5.33440687 -4 8 C-4 7.01 -4 6.02 -4 5 C-4.99 5 -5.98 5 -7 5 C-6.67 3.68 -6.34 2.36 -6 1 C-3.92446352 0.4465236 -2.15634036 0 0 0 Z " fill="#1A3580" transform="translate(439,114)"/>
<path d="M0 0 C2.475 0.99 2.475 0.99 5 2 C4.67 2.99 4.34 3.98 4 5 C7.465 4.505 7.465 4.505 11 4 C9.35 5.32 7.7 6.64 6 8 C3.33264727 5.51047079 1.44253657 3.36591866 0 0 Z " fill="#1D306D" transform="translate(15,208)"/>
<path d="M0 0 C0.8353125 0.37125 0.8353125 0.37125 1.6875 0.75 C0.800625 1.3275 -0.08625 1.905 -1 2.5 C-3.90292244 4.43068476 -6.62018649 6.53280064 -9.3125 8.75 C-7.925165 4.2096309 -5.3700603 -0.58054706 0 0 Z " fill="#1C337B" transform="translate(448.3125,105.25)"/>
<path d="M0 0 C1 2 1 2 0.546875 3.875 C0.28390625 4.57625 0.0209375 5.2775 -0.25 6 C-0.62898437 7.051875 -0.62898437 7.051875 -1.015625 8.125 C-2 10 -2 10 -5 12 C-4.54738642 10.56068883 -4.08767021 9.12361001 -3.625 7.6875 C-3.24214844 6.48673828 -3.24214844 6.48673828 -2.8515625 5.26171875 C-2 3 -2 3 0 0 Z " fill="#1E2F7A" transform="translate(13,71)"/>
<path d="M0 0 C2.97 0.33 5.94 0.66 9 1 C9.66 2.65 10.32 4.3 11 6 C9.53919067 5.38080922 8.08142545 4.75443308 6.625 4.125 C5.81289062 3.77695313 5.00078125 3.42890625 4.1640625 3.0703125 C2 2 2 2 0 0 Z " fill="#1D388B" transform="translate(8,111)"/>
<path d="M0 0 C2.96052484 3.36423277 3.92289822 6.69159287 5 11 C4.34 10.67 3.68 10.34 3 10 C3 9.34 3 8.68 3 8 C2.34 7.67 1.68 7.34 1 7 C-0.1875 5.125 -0.1875 5.125 -1 3 C-0.67 2.01 -0.34 1.02 0 0 Z " fill="#1B2D71" transform="translate(508,100)"/>
<path d="M0 0 C0.66 0.33 1.32 0.66 2 1 C2 1.99 2 2.98 2 4 C1.67 4.33 1.34 4.66 1 5 C0.92820036 6.51928038 0.91607993 8.04167482 0.9375 9.5625 C0.94652344 10.38878906 0.95554687 11.21507813 0.96484375 12.06640625 C0.97644531 12.70449219 0.98804688 13.34257813 1 14 C0.34 14 -0.32 14 -1 14 C-1.02705729 12.22925083 -1.04642195 10.45838289 -1.0625 8.6875 C-1.07410156 7.70136719 -1.08570313 6.71523437 -1.09765625 5.69921875 C-1 3 -1 3 0 0 Z " fill="#1A3A91" transform="translate(532,100)"/>
<path d="M0 0 C0.99 0.33 1.98 0.66 3 1 C0.36 3.97 -2.28 6.94 -5 10 C-5.33 9.01 -5.66 8.02 -6 7 C-4.78515625 5.17578125 -4.78515625 5.17578125 -3.0625 3.3125 C-2.49660156 2.68988281 -1.93070313 2.06726563 -1.34765625 1.42578125 C-0.90292969 0.95527344 -0.45820313 0.48476562 0 0 Z " fill="#172F72" transform="translate(158,86)"/>
<path d="M0 0 C2.125 0.375 2.125 0.375 4 1 C2.35830472 3.02054804 0.69088222 5.02043058 -1 7 C-1.33 7 -1.66 7 -2 7 C-2.125 4.625 -2.125 4.625 -2 2 C-1.34 1.34 -0.68 0.68 0 0 Z " fill="#1C3582" transform="translate(173,67)"/>
<path d="M0 0 C2.64752004 2.57784846 4.94432065 4.91648098 7 8 C5.35 7.67 3.7 7.34 2 7 C1.34 4.69 0.68 2.38 0 0 Z " fill="#1A2E80" transform="translate(153,180)"/>
<path d="M0 0 C1.8125 0.05078125 1.8125 0.05078125 4 0.3125 C4.721875 0.39113281 5.44375 0.46976563 6.1875 0.55078125 C7.0846875 0.77314453 7.0846875 0.77314453 8 1 C8.33 1.66 8.66 2.32 9 3 C6.36 3 3.72 3 1 3 C0.67 3.66 0.34 4.32 0 5 C-0.5625 3.0625 -0.5625 3.0625 -1 1 C-0.67 0.67 -0.34 0.34 0 0 Z " fill="#1A358A" transform="translate(430,144)"/>
<path d="M0 0 C0.33 0.66 0.66 1.32 1 2 C1.99 2.33 2.98 2.66 4 3 C5.75 5.4375 5.75 5.4375 7 8 C6.67 8.66 6.34 9.32 6 10 C4.99106869 8.90398831 3.99311775 7.79786082 3 6.6875 C2.1646875 5.76517578 2.1646875 5.76517578 1.3125 4.82421875 C0 3 0 3 0 0 Z " fill="#1B2C7B" transform="translate(115,81)"/>
<path d="M0 0 C1.32 0.66 2.64 1.32 4 2 C3.67 3.32 3.34 4.64 3 6 C2.01 5.67 1.02 5.34 0 5 C-0.75 3 -0.75 3 -1 1 C-0.67 0.67 -0.34 0.34 0 0 Z " fill="#213D9F" transform="translate(63,19)"/>
<path d="M0 0 C1.98 0 3.96 0 6 0 C6.66 1.32 7.32 2.64 8 4 C5.64828869 3.40138258 3.3140622 2.73075648 1 2 C0.67 1.34 0.34 0.68 0 0 Z " fill="#1A2E77" transform="translate(72,262)"/>
<path d="M0 0 C2.33333333 2.33333333 4.66666667 4.66666667 7 7 C6.67 7.99 6.34 8.98 6 10 C4.99106869 8.90398831 3.99311775 7.79786082 3 6.6875 C2.1646875 5.76517578 2.1646875 5.76517578 1.3125 4.82421875 C0 3 0 3 0 0 Z " fill="#172B7D" transform="translate(69,82)"/>
<path d="M0 0 C0.33 0.66 0.66 1.32 1 2 C-1.40983607 6.70491803 -1.40983607 6.70491803 -4 8 C-3.50168276 4.31245243 -2.89932357 2.39509338 0 0 Z " fill="#1D3682" transform="translate(218,71)"/>
<path d="M0 0 C6.75 2.75 6.75 2.75 9 5 C4.78087253 4.5205537 2.20336822 3.83374881 -1 1 C-0.67 0.67 -0.34 0.34 0 0 Z " fill="#1B3078" transform="translate(81,265)"/>
<path d="M0 0 C0.99 0.33 1.98 0.66 3 1 C2.67 1.99 2.34 2.98 2 4 C-0.5625 5.1875 -0.5625 5.1875 -3 6 C-2.01 4.02 -1.02 2.04 0 0 Z " fill="#1C307B" transform="translate(473,160)"/>
<path d="M0 0 C1.670625 0.061875 1.670625 0.061875 3.375 0.125 C3.375 0.785 3.375 1.445 3.375 2.125 C0.04965243 3.23344919 -2.24682575 2.96954356 -5.625 2.125 C-3.625 0.125 -3.625 0.125 0 0 Z " fill="#1B338C" transform="translate(242.625,65.875)"/>
</svg>
