<?xml version="1.0" encoding="UTF-8"?>
<!DOCTYPE svg PUBLIC "-//W3C//DTD SVG 1.1//EN" "http://www.w3.org/Graphics/SVG/1.1/DTD/svg11.dtd">
<svg xmlns="http://www.w3.org/2000/svg" version="1.1" width="4832px" height="1464px" style="shape-rendering:geometricPrecision; text-rendering:geometricPrecision; image-rendering:optimizeQuality; fill-rule:evenodd; clip-rule:evenodd" xmlns:xlink="http://www.w3.org/1999/xlink">
<g><path style="opacity:0.998" fill="#fe8a5a" d="M 4079.5,-0.5 C 4091.17,-0.5 4102.83,-0.5 4114.5,-0.5C 4326.17,8.76631 4503.67,90.7663 4647,245.5C 4759.48,373.663 4820.98,523.33 4831.5,694.5C 4831.5,720.167 4831.5,745.833 4831.5,771.5C 4817.62,966.074 4740.62,1130.57 4600.5,1265C 4463.54,1390.1 4301.87,1456.27 4115.5,1463.5C 4104.17,1463.5 4092.83,1463.5 4081.5,1463.5C 4057.27,1462.41 4032.94,1460.57 4008.5,1458C 3025.64,1352.39 2042.81,1246.55 1060,1140.5C 799.768,1242.47 539.601,1344.63 279.5,1447C 205.698,1472.25 137.698,1461.59 75.5,1415C 31.7202,1378.61 6.38689,1332.11 -0.5,1275.5C -0.5,1261.5 -0.5,1247.5 -0.5,1233.5C 10.6346,1155.73 51.6346,1099.9 122.5,1066C 156.132,1051.67 191.132,1046.34 227.5,1050C 504.83,1080.07 782.163,1109.73 1059.5,1139C 1983.91,775.863 2908.25,412.529 3832.5,49C 3912.2,18.6941 3994.53,2.1941 4079.5,-0.5 Z"/></g>
</svg>
