<?xml version="1.0" encoding="UTF-8"?>
<svg version="1.1" xmlns="http://www.w3.org/2000/svg" width="650" height="275">
<path d="M0 0 C0.64744171 -0.0049649 1.29488342 -0.00992981 1.96194458 -0.01504517 C4.11974133 -0.02972828 6.27746405 -0.03648659 8.43530273 -0.04199219 C9.94254049 -0.04774822 11.44977825 -0.05350589 12.95701599 -0.05926514 C16.13231751 -0.06979901 19.30759361 -0.07562287 22.48291016 -0.07910156 C26.50697839 -0.08452538 30.53069768 -0.10840889 34.55465794 -0.13707352 C37.67869449 -0.15593894 40.80265201 -0.16091846 43.92674065 -0.16243744 C45.40676676 -0.16542215 46.88679295 -0.17330473 48.36676216 -0.18662262 C69.30713837 -0.36126452 88.23996284 3.55869185 104.06030273 18.25488281 C116.57634901 31.36466942 120.01074519 48.58349533 119.80639648 66.16113281 C118.73335044 93.1643366 110.81789578 119.95148802 90.80639648 139.16113281 C68.01740913 158.79421084 43.75140304 160.35934182 14.99389648 160.22363281 C13.12605915 160.2186052 11.2582205 160.21404454 9.39038086 160.20996094 C4.8623529 160.19906115 0.33438965 160.18186684 -4.19360352 160.16113281 C-4.49250488 161.09393066 -4.79140625 162.02672852 -5.09936523 162.98779297 C-6.19285964 166.15897554 -7.55194937 168.69412397 -9.31860352 171.53613281 C-9.85743164 172.41011719 -10.39625977 173.28410156 -10.95141602 174.18457031 C-11.36133789 174.83683594 -11.77125977 175.48910156 -12.19360352 176.16113281 C-12.94125977 175.81179687 -13.68891602 175.46246094 -14.45922852 175.10253906 C-15.44407227 174.6475 -16.42891602 174.19246094 -17.44360352 173.72363281 C-18.90540039 173.04494141 -18.90540039 173.04494141 -20.39672852 172.35253906 C-27.87995537 169.16485164 -35.33379471 169.25632738 -42.93188477 172.13378906 C-51.36964315 175.96648415 -56.36666024 180.64101248 -60.19360352 189.16113281 C-62.76591692 196.15163265 -63.043943 203.70635322 -60.15844727 210.65332031 C-59.42369284 212.17264302 -58.65333433 213.6756007 -57.83813477 215.15332031 C-57.19360352 217.16113281 -57.19360352 217.16113281 -57.88916016 219.13647461 C-59.47832291 221.6030527 -60.78489014 222.30614622 -63.42016602 223.56347656 C-64.28005127 223.97678223 -65.13993652 224.39008789 -66.02587891 224.81591797 C-66.94747803 225.23921387 -67.86907715 225.66250977 -68.81860352 226.09863281 C-69.75760498 226.53739746 -70.69660645 226.97616211 -71.6640625 227.42822266 C-90.77237037 236.16113281 -90.77237037 236.16113281 -100.19360352 236.16113281 C-100.36375977 235.50886719 -100.53391602 234.85660156 -100.70922852 234.18457031 C-103.40529444 224.46152405 -108.12526325 217.16070807 -117.09204102 212.08691406 C-125.34417882 208.3932716 -133.18456713 208.33704046 -141.70532227 211.12988281 C-149.43147401 214.33193 -154.35329271 219.83941876 -158.19360352 227.16113281 C-159.38125391 230.11905454 -160.36439936 233.08434896 -161.19360352 236.16113281 C-168.69031632 235.473361 -175.38257603 233.12201663 -182.31860352 230.34863281 C-183.15294922 230.01734375 -183.98729492 229.68605469 -184.84692383 229.34472656 C-196.41496358 224.60634084 -196.41496358 224.60634084 -201.19360352 221.16113281 C-202.19360352 218.16113281 -202.19360352 218.16113281 -201.45141602 216.22363281 C-201.07758789 215.54300781 -200.70375977 214.86238281 -200.31860352 214.16113281 C-198.2473167 210.33721869 -197.06484469 207.31612709 -197.09594727 202.93066406 C-197.09916992 202.12822266 -197.10239258 201.32578125 -197.10571289 200.49902344 C-197.11828125 199.24895508 -197.11828125 199.24895508 -197.13110352 197.97363281 C-197.13787109 196.70616211 -197.13787109 196.70616211 -197.14477539 195.41308594 C-197.15654948 193.32907126 -197.17448461 191.24509305 -197.19360352 189.16113281 C-196.3827832 189.22816406 -195.57196289 189.29519531 -194.73657227 189.36425781 C-189.30028615 189.44020127 -185.57083894 189.24209203 -181.19750977 185.80957031 C-178.29161042 182.78523917 -175.74326714 179.48540286 -173.19360352 176.16113281 C-171.65564126 174.28309309 -170.11416674 172.40792218 -168.56860352 170.53613281 C-167.84415039 169.63636719 -167.11969727 168.73660156 -166.37329102 167.80957031 C-164.21602953 165.18838162 -161.98049351 162.66959 -159.69360352 160.16113281 C-155.77713929 155.86390123 -152.10596745 151.4081335 -148.45141602 146.88769531 C-146.22568196 144.19987114 -143.92178089 141.61266262 -141.56860352 139.03613281 C-137.5194968 134.59563616 -133.80180955 129.96433955 -130.19360352 125.16113281 C-127.22629595 125.48787005 -126.24221915 126.10991443 -124.15063477 128.31347656 C-123.44293945 129.23257813 -122.73524414 130.15167969 -122.00610352 131.09863281 C-118.27768578 135.82825662 -114.40329323 140.3361194 -110.33422852 144.77441406 C-108.19360352 147.16113281 -108.19360352 147.16113281 -106.17822266 150.27368164 C-104.52209729 152.25158656 -103.60944068 153.05716298 -101.08584595 153.68812561 C-98.47067272 153.8556085 -95.91815617 153.83573455 -93.29907227 153.74707031 C-92.35171707 153.73858063 -91.40436188 153.73009094 -90.42829895 153.72134399 C-87.41139553 153.68783685 -84.39719476 153.61256257 -81.38110352 153.53613281 C-79.33231408 153.50602974 -77.28348261 153.47865453 -75.23461914 153.45410156 C-70.2199107 153.38805415 -65.20721481 153.28455063 -60.19360352 153.16113281 C-60.99096924 152.23099365 -61.78833496 151.30085449 -62.60986328 150.3425293 C-63.68074685 149.09326293 -64.75162893 147.84399528 -65.82250977 146.59472656 C-66.34510376 145.98512085 -66.86769775 145.37551514 -67.40612793 144.74743652 C-70.98310209 140.57452992 -74.55770947 136.39960535 -78.13110352 132.22363281 C-81.80448564 127.93193739 -85.49749076 123.65815371 -89.20678711 119.39746094 C-94.99382565 112.74802033 -100.66700558 106.03010854 -106.19360352 99.16113281 C-104.15313625 95.52935774 -101.90741967 92.57844833 -99.06860352 89.53613281 C-95.82272477 85.99612913 -92.710701 82.39809917 -89.69360352 78.66113281 C-86.08327909 74.19837068 -82.30932423 69.93393748 -78.44360352 65.69238281 C-76.11498298 63.07268471 -73.89797404 60.38597972 -71.69360352 57.66113281 C-68.78546972 54.06635631 -65.8081902 50.57852653 -62.69360352 47.16113281 C-54.47411144 38.19314128 -54.47411144 38.19314128 -47.43969727 28.31347656 C-45.19360352 26.16113281 -45.19360352 26.16113281 -41.43579102 25.99707031 C-39.97772439 26.15668461 -38.52185408 26.33739227 -37.06860352 26.53613281 C-28.09425086 27.42564644 -21.54106346 26.7052608 -14.19360352 21.16113281 C-13.20360352 20.83113281 -12.21360352 20.50113281 -11.19360352 20.16113281 C-10.41982265 18.26456672 -10.41982265 18.26456672 -10.06079102 15.94238281 C-9.81135742 14.66814453 -9.81135742 14.66814453 -9.55688477 13.36816406 C-9.39575195 12.47484375 -9.23461914 11.58152344 -9.06860352 10.66113281 C-8.73571681 8.90013671 -8.39993344 7.13968486 -8.06079102 5.37988281 C-7.91754395 4.59548828 -7.77429688 3.81109375 -7.62670898 3.00292969 C-6.67008396 -1.06515327 -3.67811042 0.02136833 0 0 Z M27.80639648 33.16113281 C25.32554349 44.84311016 22.84794205 56.52577187 20.37451935 68.20932484 C19.22597727 73.6341143 18.07630551 79.05865926 16.92407227 84.48266602 C15.81268608 89.71459263 14.70424091 94.94713434 13.59785461 100.18012047 C13.17468012 102.17907714 12.7504363 104.17780774 12.32511902 106.17630959 C11.73078126 108.9698994 11.14020925 111.76426011 10.55053711 114.55883789 C10.37287308 115.38961853 10.19520905 116.22039917 10.01216125 117.07635498 C9.36500394 120.15853115 8.80639648 123.00220493 8.80639648 126.16113281 C12.71655276 126.26155168 16.62618899 126.333313 20.53735352 126.38085938 C22.50620989 126.41038032 24.47470946 126.46125958 26.44311523 126.51269531 C40.14160128 126.65176624 50.50781145 123.32085379 60.80639648 114.16113281 C73.97169638 100.34876714 77.37903785 82.39247293 77.07983398 63.94628906 C76.72097666 54.90912463 74.10558729 47.29688327 67.70874023 40.77832031 C58.82900425 33.22963305 47.54650926 33.02696719 36.39233398 33.11425781 C35.5637085 33.1176416 34.73508301 33.12102539 33.88134766 33.12451172 C31.85634609 33.13327164 29.83136571 33.14672022 27.80639648 33.16113281 Z " fill="#FFFFFF" transform="translate(268.193603515625,38.8388671875)"/>
<path d="M0 0 C7.06486506 0.43643954 13.37028706 1.716849 20.0625 4 C21.4086438 4.45161499 21.4086438 4.45161499 22.78198242 4.91235352 C31.69317588 8.02753364 39.84425516 12.28612913 48 17 C46.125 22.703125 46.125 22.703125 45 25.375 C43.84927956 28.11814693 43.84927956 28.11814693 43.4375 31.6875 C42.23187297 36.71722527 38.9954577 39.7071458 35.49609375 43.36328125 C33.01810808 45.98087175 30.75544827 48.68960839 28.5 51.5 C24.88967558 55.96276213 21.11572071 60.22719533 17.25 64.46875 C14.92137947 67.0884481 12.70437053 69.7751531 10.5 72.5 C6.88967558 76.96276213 3.11572071 81.22719533 -0.75 85.46875 C-3.85896881 88.96633991 -6.77829637 92.60676469 -9.71875 96.24609375 C-12.77935248 99.94082791 -15.99914189 103.47649944 -19.25 107.00390625 C-21.04781979 108.88450675 -21.04781979 108.88450675 -22 111 C-25.59721356 109.5045292 -27.63097221 107.47293692 -30.1875 104.5625 C-30.97511719 103.66660156 -31.76273438 102.77070312 -32.57421875 101.84765625 C-35.68915007 98.19099774 -38.71649667 94.46809835 -41.73828125 90.734375 C-44.6438858 87.2215543 -47.68380382 83.84631597 -50.76171875 80.484375 C-53 78 -53 78 -54.17979431 76.25016785 C-56.20257263 73.42903813 -57.77228772 71.34426462 -61.19676208 70.38400269 C-63.8216991 70.19111978 -66.36223387 70.21194595 -68.9921875 70.31640625 C-69.93812775 70.32631088 -70.88406799 70.33621552 -71.8586731 70.34642029 C-74.865725 70.38545657 -77.8690609 70.47325517 -80.875 70.5625 C-82.91921793 70.59762791 -84.96349336 70.62956433 -87.0078125 70.65820312 C-92.00662958 70.73518324 -97.00268591 70.85588935 -102 71 C-101.6376123 71.41773682 -101.27522461 71.83547363 -100.90185547 72.26586914 C-99.22602694 74.19789735 -97.55051215 76.13019741 -95.875 78.0625 C-95.30523437 78.71927734 -94.73546875 79.37605469 -94.1484375 80.05273438 C-90.41755594 84.35596708 -86.70187312 88.67179399 -83 93 C-78.85076317 97.84860831 -74.68328707 102.68073394 -70.5 107.5 C-64.77646438 114.09411687 -59.08646702 120.71635889 -53.41064453 127.3515625 C-50.94230958 130.23598576 -48.47105782 133.11790939 -46 136 C-47.40839495 140.29445018 -49.45854776 142.87046479 -52.5625 146.125 C-56.03919781 149.84646533 -59.36495561 153.59371692 -62.5625 157.5625 C-65.44848793 161.13828469 -68.40444804 164.60401318 -71.5 168 C-74.61458668 171.41739372 -77.5918662 174.9052235 -80.5 178.5 C-83.4081338 182.0947765 -86.38541332 185.58260628 -89.5 189 C-94.2080942 194.1690265 -98.60349062 199.56601645 -103 205 C-104.65879108 207.00678921 -106.32790465 209.00427329 -108 211 C-108.54527344 210.855625 -109.09054688 210.71125 -109.65234375 210.5625 C-119.77979063 208.06959 -127.43422658 208.49580118 -137 213 C-138.33702892 213.99505349 -139.67117682 214.99401455 -141 216 C-141.66 216 -142.32 216 -143 216 C-162 184.41558442 -162 184.41558442 -162 171 C-161.13117188 170.69707031 -160.26234375 170.39414063 -159.3671875 170.08203125 C-148.04642763 165.96654248 -142.4652293 161.94826064 -137 151 C-134.32165938 143.04565104 -135.24125729 133.70483791 -138.7578125 126.2109375 C-143.32013584 118.09057584 -149.38639135 114.45471787 -158 111 C-159.65595651 110.61698965 -161.32110082 110.26492721 -163 110 C-162.43193353 104.20180431 -161.30384058 99.01244208 -159.4375 93.5 C-159.17864014 92.72970459 -158.91978027 91.95940918 -158.65307617 91.16577148 C-156.71892291 85.61847703 -154.43180821 80.31933557 -151.8125 75.0625 C-151.47984131 74.39476563 -151.14718262 73.72703125 -150.80444336 73.0390625 C-149.2008052 69.94049376 -147.69416339 67.26042811 -145 65 C-144.236875 65.598125 -143.47375 66.19625 -142.6875 66.8125 C-136.20115651 71.08585571 -128.28024107 72.83642332 -120.61328125 71.69921875 C-112.29745714 69.47420752 -104.51803351 65.52506905 -100 58 C-95.64600719 50.12721425 -94.33782117 41.90276188 -96.80078125 33.15625 C-98.11095092 29.71642229 -99.36941633 26.77699505 -101.69921875 23.90625 C-102.12847656 23.2771875 -102.55773437 22.648125 -103 22 C-101.590861 17.772583 -98.59322143 16.71965135 -94.875 14.6875 C-94.16230957 14.29232178 -93.44961914 13.89714355 -92.71533203 13.48999023 C-85.70732299 9.69096042 -78.49588773 6.70241815 -71 4 C-69.45699219 3.42572266 -69.45699219 3.42572266 -67.8828125 2.83984375 C-65.08348865 2.02432258 -62.89424487 1.8297503 -60 2 C-59.79246094 2.70125 -59.58492188 3.4025 -59.37109375 4.125 C-56.32888429 13.49347765 -51.77074035 20.14810108 -43 25 C-35.41554543 27.93108682 -27.46559342 28.42396414 -19.66796875 25.9375 C-11.7657772 22.2796302 -5.83900224 17.34866359 -2.125 9.375 C-1.07635514 6.22906541 -0.40090348 3.28740856 0 0 Z " fill="#FFFFFF" transform="translate(163,0)"/>
<path d="M0 0 C10.31447928 9.63523308 15.88964415 22.58420907 16.375 36.53515625 C16.40310629 38.10665759 16.42388244 39.67830633 16.4375 41.25 C16.4468457 41.98532959 16.45619141 42.72065918 16.46582031 43.47827148 C16.43135517 49.47586852 15.41058129 54.13459354 14.1875 60.25 C-12.8725 60.25 -39.9325 60.25 -67.8125 60.25 C-66.68336801 72.11497536 -66.68336801 72.11497536 -59.9375 81.125 C-54.136518 85.06966776 -48.70174027 86.10284807 -41.8125 85.25 C-38.12404824 84.40966466 -35.03036612 83.24826109 -31.8125 81.25 C-30.87820772 79.73821541 -29.99620933 78.1932506 -29.16015625 76.625 C-27.34316006 74.18685265 -25.98237513 72.55527863 -22.97583008 71.77072144 C-17.45508741 71.10360759 -11.91437334 71.43237969 -6.375 71.6875 C-4.67263165 71.73268702 -2.97014837 71.77374427 -1.26757812 71.81054688 C2.88696844 71.9093128 7.035966 72.06433779 11.1875 72.25 C7.62507932 86.77591816 0.65413561 97.35865587 -12.125 105.6875 C-27.98060408 114.8443459 -48.57670084 117.10581799 -66.4375 113.1875 C-79.97179878 108.96543012 -90.5181392 101.38221258 -97.49609375 89.0234375 C-101.20035158 81.21921477 -103.45278022 72.8832747 -103.8125 64.25 C-103.85246094 63.4971875 -103.89242188 62.744375 -103.93359375 61.96875 C-104.48952565 41.82439415 -98.11808414 21.22868855 -84.16015625 6.41015625 C-61.74749599 -14.21247457 -25.0036023 -19.57044703 0 0 Z M-58.8125 26.25 C-61.93390025 30.25179519 -62.79512752 32.1631376 -63.8125 37.25 C-49.2925 37.25 -34.7725 37.25 -19.8125 37.25 C-19.8125 29.37614698 -19.95567298 26.80946443 -24.8125 21.25 C-35.77639046 11.5939848 -49.94448676 16.84027554 -58.8125 26.25 Z " fill="#FFFFFF" transform="translate(498.8125,86.75)"/>
<path d="M0 0 C12.87 0 25.74 0 39 0 C39.20496094 4.73472656 39.40992188 9.46945313 39.62109375 14.34765625 C39.75306529 17.37826375 39.88513983 20.40886608 40.01757812 23.43945312 C40.22698289 28.23148433 40.43604172 33.02352858 40.64282227 37.81567383 C40.80987959 41.68667182 40.97867011 45.55759096 41.14857674 49.42846489 C41.21255101 50.89252571 41.27593947 52.35661228 41.33868217 53.82072639 C41.7564872 63.55841598 42.30951932 73.27808239 43 83 C43.43919266 82.03823853 43.87838531 81.07647705 44.33088684 80.08557129 C52.9723896 61.16315806 61.63292055 42.24964305 70.32592773 23.35083008 C70.83962921 22.23373405 70.83962921 22.23373405 71.3637085 21.09407043 C71.99235077 19.72709557 72.62119198 18.36021217 73.25030518 16.99345398 C75.8515915 11.33697564 78.42358863 5.66810501 81 0 C94.86 0 108.72 0 123 0 C117.70705741 10.58588518 112.37233214 21.11874441 106.8125 31.5625 C106.44694 32.25076874 106.08138 32.93903748 105.70474243 33.64816284 C100.48819071 43.46317671 95.1256278 53.18019335 89.60498047 62.828125 C85.37005948 70.26013927 81.39292545 77.80868212 77.46777344 85.40795898 C73.87281697 92.35928449 70.18770528 99.25619694 66.4375 106.125 C65.93661865 107.0435376 65.4357373 107.9620752 64.91967773 108.90844727 C62.29399015 113.70276997 62.29399015 113.70276997 61 116 C60.66258789 116.90758057 60.32517578 117.81516113 59.97753906 118.75024414 C58 121 58 121 55.99476624 121.42938232 C53.27028096 121.58210521 50.59114792 121.56094213 47.86328125 121.48828125 C46.37141548 121.47766914 46.37141548 121.47766914 44.84941101 121.46684265 C41.66967867 121.43883158 38.49170094 121.37607922 35.3125 121.3125 C33.15822854 121.28742588 31.0039295 121.26461117 28.84960938 121.24414062 C23.56580659 121.1889834 18.28302862 121.10529098 13 121 C5.19807298 54.07287563 5.19807298 54.07287563 2.31967163 28.4637146 C2.10797896 26.58386347 1.89496393 24.70416074 1.68057251 22.82461548 C1.387381 20.25067792 1.09918128 17.67623215 0.8125 15.1015625 C0.72852463 14.37238113 0.64454926 13.64319977 0.55802917 12.891922 C0.07879912 8.5208042 0 4.4403126 0 0 Z " fill="#FFFFFF" transform="translate(527,78)"/>
</svg>
